<svg width="650" height="711" viewBox="0 0 650 711" fill="none" xmlns="http://www.w3.org/2000/svg">
<line x1="191.482" y1="70.8656" x2="325.482" y2="550.866" stroke="white"/>
<line x1="185.312" y1="439.61" x2="320.312" y2="547.61" stroke="white"/>
<line x1="513.47" y1="75.1708" x2="340.47" y2="551.171" stroke="white"/>
<line x1="531.289" y1="415.408" x2="342.289" y2="549.408" stroke="white"/>
<line x1="325.132" y1="1.48225" x2="157.132" y2="47.4823" stroke="white"/>
<line x1="338.116" y1="0.513624" x2="531.116" y2="46.5136" stroke="white"/>
<rect x="325" y="1" width="15" height="555" fill="#FCCA83"/>
<path d="M481.565 47.5196C483.174 46.8234 484.909 46.8269 486.517 47.5295C488.126 48.2322 489.524 49.5974 490.51 51.4275C491.495 53.2576 492.017 55.4574 491.999 57.7082C491.982 59.9591 491.426 62.144 490.412 63.9464C436.772 159.328 436.772 252.378 490.412 347.971C491.298 349.553 491.835 351.433 491.962 353.399C492.089 355.365 491.8 357.339 491.129 359.099C490.467 360.846 489.453 362.316 488.201 363.345C486.949 364.374 485.507 364.922 484.035 364.927H324.63C322.754 364.973 320.926 364.137 319.468 362.567C318.01 360.996 317.016 358.793 316.66 356.343C294.742 208.078 350.215 104.218 481.565 47.5196Z" fill="#F5A162"/>
<path d="M555.707 438.909C557.582 439.717 559.573 439.652 561.392 438.722C563.211 437.793 564.764 436.047 565.826 433.739C566.887 431.431 567.403 428.679 567.297 425.883C567.191 423.087 566.469 420.392 565.237 418.189C500.039 301.57 496.498 185.962 554.428 65.3083C555.386 63.3115 555.931 60.957 556.001 58.5099C556.072 56.0628 555.666 53.6203 554.828 51.4576C554.001 49.3094 552.782 47.519 551.306 46.2848C549.83 45.0505 548.154 44.4207 546.464 44.4651L363.497 50.0693C361.342 50.0789 359.276 51.1819 357.662 53.184C356.049 55.1862 354.991 57.9593 354.675 61.015C335.159 245.994 402.785 373.082 555.707 438.909Z" fill="#F5A162"/>
<path d="M145.938 48.9618C147.061 47.3799 154.872 54.677 156.521 54.2126C158.17 53.7482 159.889 53.9466 161.428 54.779C162.967 55.6114 164.246 57.0345 165.08 58.8423C165.914 60.65 166.26 62.7485 166.068 64.8335C155.898 175.157 191.011 249.425 273.246 291.531C274.606 292.228 275.777 293.386 276.628 294.875C277.479 296.363 277.976 298.123 278.062 299.955C278.152 301.772 277.834 303.592 277.145 305.211C276.456 306.83 275.421 308.187 274.157 309.13L184.157 441.425L177 444.044C175.403 445.276 141.739 423.015 131.64 412.15C121.541 401.286 121.788 402.301 120.557 400.573C45.746 296.206 54.2941 177.947 145.938 48.9618Z" fill="#F5A162"/>
<path d="M488.153 366.921C489.078 368.802 491.987 381.908 491.5 384.033C491.013 386.158 489.829 388.138 488.118 389.686C486.407 391.234 484.259 392.27 481.985 392.644C479.711 393.018 477.429 392.71 475.469 391.765C371.779 341.794 277.864 358.156 188.804 441.71C187.329 443.092 185.506 444.091 183.54 444.594C181.573 445.098 179.541 445.086 177.672 444.56C175.816 444.043 174.192 443.04 172.981 441.663C171.769 440.286 171.017 438.589 170.807 436.758L148.75 238.409C148.444 236.083 149.035 233.662 150.418 231.571C151.801 229.481 153.888 227.856 156.311 226.982C302.922 173.637 412.752 213.452 488.153 366.921Z" fill="#F5A162"/>
<path d="M177.783 434.636C177.039 435.904 176.036 444.259 177.005 445.483C177.973 446.707 179.739 447.748 182.046 448.455C184.353 449.162 187.082 449.499 189.837 449.416C192.592 449.334 195.229 448.836 197.368 447.995C310.54 403.532 424.472 400.68 545.131 439.29C547.128 439.928 549.466 440.286 551.882 440.324C554.297 440.362 556.695 440.078 558.804 439.504C560.9 438.938 562.631 438.108 563.806 437.107C564.982 436.105 565.555 434.972 565.463 433.832L496.329 320.184C407.253 328.432 365.495 322.045 449.285 318.112C378.792 318.119 491.936 332.249 507.578 320.911C324.564 308.482 238.357 331.178 177.783 434.636Z" fill="#F5A162"/>
<rect x="147" y="47.2583" width="314" height="20.027" fill="#F5A162"/>
<rect x="157" y="62.2788" width="281" height="45.0608" fill="#F5A162"/>
<rect x="157" y="104.836" width="217" height="152.706" fill="#F5A162"/>
<path d="M411 198.042C399.249 184.546 373.043 184.115 361.135 196.79C357.649 197.534 354.202 198.394 350.794 199.411C361.84 192.878 371.437 183.763 373.317 173.005C349.384 172.653 332.266 190.609 335.596 205.045C328.744 208.117 322.188 211.81 316.01 216.077C324.51 206.492 330.699 194.952 329.132 184.115C306.609 191 295.68 213.338 303.24 226.091C297.51 231.191 292.265 236.809 287.572 242.874C292.86 230.903 295.406 218.033 290.431 208.174C271.394 221.397 267.36 245.847 277.818 256.097C267.673 278.708 259.995 304.41 256 344H260.857C265.714 301.359 275.351 269.241 282.01 257.935C289.191 258.728 296.456 257.735 303.16 255.046C309.865 252.357 315.799 248.055 320.436 242.522C316.287 239.247 311.153 237.466 305.865 237.466C300.576 237.466 295.442 239.247 291.293 242.522C295.503 237.296 300.127 232.416 305.121 227.93C311.642 231.286 318.932 232.871 326.261 232.528C333.589 232.185 340.698 229.925 346.877 225.974C343.981 221.615 339.711 218.347 334.743 216.688C329.775 215.03 324.395 215.076 319.457 216.82C325.015 213.187 330.858 210.008 336.927 207.314C342.114 212.553 348.597 216.33 355.717 218.261C362.837 220.191 370.341 220.207 377.47 218.306C375.992 213.265 372.885 208.854 368.634 205.761C364.382 202.668 359.225 201.068 353.967 201.211C356.591 200.468 359.216 199.842 361.801 199.294C377.734 205.318 395.395 204.868 411 198.042Z" fill="#FFC850"/>
<path d="M320 149.949C306.106 143.726 285.521 152.846 280.877 166.779C278.437 168.58 276.075 170.693 273.792 172.494C280.011 163.492 284.183 152.924 281.664 144C263.165 152.493 256.278 172.494 264.071 182.435C259.818 187.298 256.024 192.539 252.735 198.091C255.884 187.641 256.671 176.525 251.358 168.697C236.401 182.122 235.968 203.297 246.477 210.421C243.901 216.404 241.898 222.616 240.495 228.973C240.258 217.857 237.464 207.015 230.143 201.144C220.146 218.209 225.853 238.523 237.582 242.711C234.602 278.135 239.994 313.762 253.326 346.745C253.473 347.102 253.724 347.408 254.046 347.624C254.368 347.84 254.748 347.956 255.136 347.958C255.382 348.014 255.638 348.014 255.884 347.958C256.124 347.864 256.343 347.723 256.528 347.543C256.712 347.363 256.858 347.147 256.957 346.91C257.056 346.673 257.106 346.418 257.105 346.161C257.103 345.904 257.049 345.65 256.947 345.414C243.803 312.905 238.545 277.774 241.597 242.868C247.456 240.901 252.737 237.524 256.967 233.038C261.197 228.551 264.246 223.094 265.842 217.153C261.437 216.122 256.811 216.588 252.703 218.474C248.594 220.361 245.239 223.561 243.171 227.564C244.53 221.993 246.36 216.546 248.642 211.282C254.931 211.557 261.183 210.178 266.766 207.286C272.349 204.393 277.067 200.087 280.444 194.804C276.597 192.491 272.087 191.513 267.621 192.023C263.155 192.533 258.986 194.502 255.766 197.622C258.758 192.815 262.141 188.259 265.881 184.001C271.801 186.172 278.192 186.754 284.41 185.689C290.629 184.624 296.455 181.949 301.304 177.934C298.334 174.564 294.324 172.267 289.902 171.403C285.48 170.539 280.894 171.157 276.862 173.159C278.594 171.672 280.405 170.224 282.255 168.854C296.848 167.737 310.41 160.944 320 149.949Z" fill="#FFC850"/>
<path d="M329.149 168.529C331.556 167.317 333.963 166.145 336.447 165.09C353.135 167.783 370.207 163.786 384 153.956C369.986 143.056 344.366 147.861 335.321 162.746C332.099 164.153 328.916 165.676 325.811 167.356C335.244 158.761 342.774 147.822 342.425 137C319.134 141.454 306.091 162.473 312.185 176.069C306.112 180.466 300.447 185.409 295.26 190.837C301.626 179.78 305.314 167.396 301.626 156.964C281.13 168.216 274.958 192.126 284.857 203.183C280.392 209.324 276.494 215.862 273.211 222.717C275.967 209.981 275.734 196.892 269.096 188.219C253.219 204.98 254.19 229.671 266.262 237.641C253.352 277.147 249.803 319.145 255.898 360.278C256.041 360.83 256.383 361.309 256.857 361.622C257.332 361.935 257.904 362.06 258.465 361.973C259.025 361.885 259.533 361.592 259.891 361.149C260.249 360.706 260.43 360.145 260.401 359.575C254.333 318.948 257.871 277.454 270.727 238.462C277.854 237.789 284.707 235.359 290.679 231.386C296.65 227.414 301.557 222.021 304.965 215.685C300.289 213.29 294.947 212.554 289.804 213.596C284.66 214.639 280.018 217.398 276.627 221.428C279.611 215.481 283.064 209.785 286.953 204.394C293.979 206.411 301.41 206.53 308.496 204.74C315.583 202.95 322.077 199.314 327.325 194.197C323.626 190.507 318.806 188.172 313.635 187.563C308.463 186.954 303.237 188.106 298.793 190.837C303.458 186.16 308.496 181.874 313.854 178.022C319.94 182.107 326.988 184.503 334.287 184.969C341.587 185.436 348.88 183.956 355.429 180.679C353.003 176.011 349.107 172.286 344.351 170.087C339.595 167.889 334.248 167.34 329.149 168.529Z" fill="#FCB72B"/>
<path d="M650 453V472.844H571.617C552.931 472.897 534.53 477.429 517.957 486.061C501.384 494.693 487.122 507.172 476.367 522.453C465.642 537.764 451.386 550.266 434.806 558.901C418.227 567.536 399.811 572.051 381.117 572.062H283.883C265.197 572.01 246.796 567.477 230.223 558.846C213.649 550.214 199.388 537.734 188.633 522.453C177.907 507.142 163.652 494.64 147.072 486.005C130.492 477.37 112.077 472.855 93.3828 472.844H15V453H103.305C121.991 453.053 140.392 457.585 156.965 466.217C173.538 474.849 187.8 487.328 198.555 502.609C209.28 517.92 223.536 530.422 240.115 539.057C256.695 547.693 275.111 552.207 293.805 552.219H371.195C389.881 552.166 408.283 547.634 424.856 539.002C441.429 530.37 455.691 517.89 466.445 502.609C477.171 487.299 491.426 474.797 508.006 466.161C524.586 457.526 543.002 453.012 561.695 453H650Z" fill="url(#paint0_linear_214_292)"/>
<path d="M15 472.844C15 535.998 40.0881 596.566 84.7452 641.224C129.402 685.881 189.97 710.969 253.125 710.969H411.875C475.03 710.969 535.598 685.881 580.255 641.224C624.912 596.566 650 535.998 650 472.844H571.617C552.931 472.897 534.53 477.429 517.957 486.061C501.384 494.693 487.122 507.172 476.367 522.453C465.642 537.764 451.386 550.266 434.806 558.901C418.227 567.536 399.811 572.051 381.117 572.062H283.883C265.197 572.01 246.796 567.477 230.223 558.846C213.649 550.214 199.388 537.734 188.633 522.453C177.907 507.142 163.652 494.64 147.072 486.005C130.492 477.37 112.077 472.855 93.3828 472.844H15Z" fill="url(#paint1_linear_214_292)"/>
<path d="M282.891 572.062H382.109V651.438C382.109 656.7 380.019 661.748 376.297 665.469C372.576 669.191 367.529 671.281 362.266 671.281H302.734C297.471 671.281 292.424 669.191 288.703 665.469C284.981 661.748 282.891 656.7 282.891 651.438V572.062Z" fill="url(#paint2_linear_214_292)"/>
<path d="M444 632C467.748 632 487 612.748 487 589C487 565.252 467.748 546 444 546C420.252 546 401 565.252 401 589C401 612.748 420.252 632 444 632Z" fill="url(#paint3_linear_214_292)"/>
<path d="M333 649C356.748 649 376 629.748 376 606C376 582.252 356.748 563 333 563C309.252 563 290 582.252 290 606C290 629.748 309.252 649 333 649Z" fill="url(#paint4_linear_214_292)"/>
<path d="M221 635C244.748 635 264 615.748 264 592C264 568.252 244.748 549 221 549C197.252 549 178 568.252 178 592C178 615.748 197.252 635 221 635Z" fill="url(#paint5_linear_214_292)"/>
<path d="M461.39 610.418L420.554 552.781C420.028 551.899 419.325 551.136 418.489 550.539C417.654 549.942 416.704 549.525 415.7 549.312C414.695 549.1 413.658 549.098 412.652 549.305C411.647 549.513 410.695 549.926 409.857 550.519C409.019 551.112 408.312 551.872 407.782 552.751C407.251 553.63 406.908 554.609 406.773 555.627C406.639 556.645 406.717 557.679 407.001 558.666C407.286 559.652 407.771 560.569 408.427 561.359L449.19 618.984C449.754 619.789 450.473 620.474 451.303 621C452.134 621.526 453.061 621.883 454.03 622.049C455 622.215 455.992 622.188 456.951 621.968C457.909 621.749 458.815 621.342 459.616 620.771C461.219 619.629 462.305 617.9 462.638 615.96C462.97 614.02 462.522 612.028 461.39 610.418Z" fill="#FCCA83"/>
<path d="M490.087 663.938C485.213 667.379 479.174 668.745 473.293 667.738C467.413 666.73 462.173 663.43 458.723 658.563L442.609 635.823C441.134 633.734 440.547 631.144 440.979 628.623C441.411 626.102 442.827 623.855 444.914 622.377L465.94 607.503C468.029 606.027 470.619 605.441 473.14 605.873C475.661 606.305 477.908 607.72 479.386 609.808L495.463 632.574C498.903 637.448 500.27 643.488 499.262 649.368C498.254 655.248 494.954 660.488 490.087 663.938Z" fill="#FCCA83"/>
<path d="M336.39 624.418L295.554 566.781C295.028 565.899 294.325 565.136 293.489 564.539C292.654 563.942 291.704 563.525 290.7 563.312C289.695 563.1 288.658 563.098 287.652 563.305C286.647 563.513 285.695 563.926 284.857 564.519C284.019 565.112 283.312 565.872 282.782 566.751C282.251 567.63 281.908 568.609 281.773 569.627C281.639 570.645 281.717 571.679 282.001 572.666C282.286 573.652 282.771 574.569 283.427 575.359L324.19 632.984C324.754 633.789 325.473 634.474 326.303 635C327.134 635.526 328.061 635.883 329.03 636.049C330 636.215 330.992 636.188 331.951 635.968C332.909 635.749 333.815 635.342 334.616 634.771C336.219 633.629 337.305 631.9 337.638 629.96C337.97 628.02 337.522 626.028 336.39 624.418Z" fill="#FCCA83"/>
<path d="M365.087 677.938C360.213 681.379 354.174 682.745 348.293 681.738C342.413 680.73 337.173 677.43 333.723 672.563L317.609 649.823C316.134 647.734 315.547 645.144 315.979 642.623C316.411 640.102 317.827 637.855 319.914 636.377L340.94 621.503C343.029 620.027 345.619 619.441 348.14 619.873C350.661 620.305 352.908 621.72 354.386 623.808L370.463 646.574C373.903 651.448 375.27 657.488 374.262 663.368C373.254 669.248 369.954 674.488 365.087 677.938Z" fill="#FCCA83"/>
<path d="M263.39 622.418L222.554 564.781C222.028 563.899 221.325 563.136 220.489 562.539C219.654 561.942 218.704 561.525 217.7 561.312C216.695 561.1 215.658 561.098 214.652 561.305C213.647 561.513 212.695 561.926 211.857 562.519C211.019 563.112 210.312 563.872 209.782 564.751C209.251 565.63 208.908 566.609 208.773 567.627C208.639 568.645 208.717 569.679 209.001 570.666C209.286 571.652 209.771 572.569 210.427 573.359L251.19 630.984C251.754 631.789 252.473 632.474 253.303 633C254.134 633.526 255.061 633.883 256.03 634.049C257 634.215 257.992 634.188 258.951 633.968C259.909 633.749 260.815 633.342 261.616 632.771C263.219 631.629 264.305 629.9 264.638 627.96C264.97 626.02 264.522 624.028 263.39 622.418Z" fill="#FCCA83"/>
<path d="M292.087 675.938C287.213 679.379 281.174 680.745 275.293 679.738C269.413 678.73 264.173 675.43 260.723 670.563L244.609 647.823C243.134 645.734 242.547 643.144 242.979 640.623C243.411 638.102 244.827 635.855 246.914 634.377L267.94 619.503C270.029 618.027 272.619 617.441 275.14 617.873C277.661 618.305 279.908 619.72 281.386 621.808L297.463 644.574C300.903 649.448 302.27 655.488 301.262 661.368C300.254 667.248 296.954 672.488 292.087 675.938Z" fill="#FCCA83"/>
<defs>
<linearGradient id="paint0_linear_214_292" x1="40655" y1="4024.88" x2="15" y2="4024.88" gradientUnits="userSpaceOnUse">
<stop stop-color="#E9A254"/>
<stop offset="1" stop-color="#F4BB79"/>
</linearGradient>
<linearGradient id="paint1_linear_214_292" x1="15" y1="591.906" x2="650" y2="591.906" gradientUnits="userSpaceOnUse">
<stop stop-color="#FBCC88"/>
<stop offset="1" stop-color="#FFE5C3"/>
</linearGradient>
<linearGradient id="paint2_linear_214_292" x1="2961.8" y1="4640.03" x2="3953.98" y2="4640.03" gradientUnits="userSpaceOnUse">
<stop stop-color="#E9A254"/>
<stop offset="1" stop-color="#F4BB79"/>
</linearGradient>
<linearGradient id="paint3_linear_214_292" x1="401" y1="589" x2="487" y2="589" gradientUnits="userSpaceOnUse">
<stop stop-color="#F79930"/>
<stop offset="1" stop-color="#F4BB79"/>
</linearGradient>
<linearGradient id="paint4_linear_214_292" x1="290" y1="606" x2="376" y2="606" gradientUnits="userSpaceOnUse">
<stop stop-color="#FF8600"/>
<stop offset="1" stop-color="#F4BB79"/>
</linearGradient>
<linearGradient id="paint5_linear_214_292" x1="178" y1="592" x2="264" y2="592" gradientUnits="userSpaceOnUse">
<stop stop-color="#F79223"/>
<stop offset="1" stop-color="#F4BB79"/>
</linearGradient>
</defs>
</svg>
