<svg width="411" height="268" viewBox="0 0 411 268" fill="none" xmlns="http://www.w3.org/2000/svg">
<path opacity="0.4" d="M197.5 211C246.377 211 286 171.377 286 122.5C286 73.6228 246.377 34 197.5 34C148.623 34 109 73.6228 109 122.5C109 171.377 148.623 211 197.5 211Z" fill="#FFCF68"/>
<path opacity="0.2" d="M197 268C271.006 268 331 208.006 331 134C331 59.9939 271.006 0 197 0C122.994 0 63 59.9939 63 134C63 208.006 122.994 268 197 268Z" fill="#F0B16A"/>
<path opacity="0.3" d="M197 249C260.513 249 312 197.513 312 134C312 70.4873 260.513 19 197 19C133.487 19 82 70.4873 82 134C82 197.513 133.487 249 197 249Z" fill="#EFB068"/>
<path d="M196.5 235C252.005 235 297 190.005 297 134.5C297 78.9954 252.005 34 196.5 34C140.995 34 96 78.9954 96 134.5C96 190.005 140.995 235 196.5 235Z" fill="url(#paint0_linear_214_317)"/>
<g filter="url(#filter0_dd_214_317)">
<path d="M73.466 96.072V104.84H55.162V114.312H68.858V122.824H55.162V141H44.218V96.072H73.466ZM90.162 111.24C91.442 109.277 93.042 107.741 94.962 106.632C96.882 105.48 99.0153 104.904 101.362 104.904V116.488H98.354C95.6233 116.488 93.5753 117.085 92.21 118.28C90.8447 119.432 90.162 121.48 90.162 124.424V141H79.218V105.288H90.162V111.24ZM140.257 122.568C140.257 123.592 140.193 124.659 140.065 125.768H115.297C115.468 127.987 116.172 129.693 117.409 130.888C118.689 132.04 120.246 132.616 122.081 132.616C124.812 132.616 126.71 131.464 127.777 129.16H139.425C138.828 131.507 137.74 133.619 136.161 135.496C134.625 137.373 132.684 138.845 130.337 139.912C127.99 140.979 125.366 141.512 122.465 141.512C118.966 141.512 115.852 140.765 113.121 139.272C110.39 137.779 108.257 135.645 106.721 132.872C105.185 130.099 104.417 126.856 104.417 123.144C104.417 119.432 105.164 116.189 106.657 113.416C108.193 110.643 110.326 108.509 113.057 107.016C115.788 105.523 118.924 104.776 122.465 104.776C125.921 104.776 128.993 105.501 131.681 106.952C134.369 108.403 136.46 110.472 137.953 113.16C139.489 115.848 140.257 118.984 140.257 122.568ZM129.057 119.688C129.057 117.811 128.417 116.317 127.137 115.208C125.857 114.099 124.257 113.544 122.337 113.544C120.502 113.544 118.945 114.077 117.665 115.144C116.428 116.211 115.66 117.725 115.361 119.688H129.057ZM182.511 105.288L160.111 157.96H148.335L156.527 139.784L141.998 105.288H154.223L162.479 127.624L170.671 105.288H182.511ZM225.38 96.072V141H214.436V122.504H197.412V141H186.468V96.072H197.412V113.672H214.436V96.072H225.38ZM231.105 123.08C231.105 119.411 231.787 116.189 233.153 113.416C234.561 110.643 236.459 108.509 238.849 107.016C241.238 105.523 243.905 104.776 246.849 104.776C249.366 104.776 251.563 105.288 253.441 106.312C255.361 107.336 256.833 108.68 257.857 110.344V105.288H268.801V141H257.857V135.944C256.79 137.608 255.297 138.952 253.377 139.976C251.499 141 249.302 141.512 246.785 141.512C243.883 141.512 241.238 140.765 238.849 139.272C236.459 137.736 234.561 135.581 233.153 132.808C231.787 129.992 231.105 126.749 231.105 123.08ZM257.857 123.144C257.857 120.413 257.089 118.259 255.553 116.68C254.059 115.101 252.225 114.312 250.049 114.312C247.873 114.312 246.017 115.101 244.481 116.68C242.987 118.216 242.241 120.349 242.241 123.08C242.241 125.811 242.987 127.987 244.481 129.608C246.017 131.187 247.873 131.976 250.049 131.976C252.225 131.976 254.059 131.187 255.553 129.608C257.089 128.029 257.857 125.875 257.857 123.144ZM274.542 123.144C274.542 119.432 275.289 116.189 276.782 113.416C278.318 110.643 280.43 108.509 283.118 107.016C285.849 105.523 288.963 104.776 292.462 104.776C296.942 104.776 300.675 105.949 303.662 108.296C306.691 110.643 308.675 113.949 309.614 118.216H297.966C296.985 115.485 295.086 114.12 292.27 114.12C290.265 114.12 288.665 114.909 287.47 116.488C286.275 118.024 285.678 120.243 285.678 123.144C285.678 126.045 286.275 128.285 287.47 129.864C288.665 131.4 290.265 132.168 292.27 132.168C295.086 132.168 296.985 130.803 297.966 128.072H309.614C308.675 132.253 306.691 135.539 303.662 137.928C300.633 140.317 296.899 141.512 292.462 141.512C288.963 141.512 285.849 140.765 283.118 139.272C280.43 137.779 278.318 135.645 276.782 132.872C275.289 130.099 274.542 126.856 274.542 123.144ZM337.292 141L326.412 126.024V141H315.468V93.64H326.412V119.816L337.228 105.288H350.732L335.884 123.208L350.86 141H337.292ZM369.559 141.512C366.444 141.512 363.671 140.979 361.239 139.912C358.807 138.845 356.887 137.395 355.479 135.56C354.071 133.683 353.281 131.592 353.111 129.288H363.927C364.055 130.525 364.631 131.528 365.655 132.296C366.679 133.064 367.937 133.448 369.431 133.448C370.796 133.448 371.841 133.192 372.567 132.68C373.335 132.125 373.719 131.421 373.719 130.568C373.719 129.544 373.185 128.797 372.119 128.328C371.052 127.816 369.324 127.261 366.935 126.664C364.375 126.067 362.241 125.448 360.535 124.808C358.828 124.125 357.356 123.08 356.119 121.672C354.881 120.221 354.263 118.28 354.263 115.848C354.263 113.8 354.817 111.944 355.927 110.28C357.079 108.573 358.743 107.229 360.919 106.248C363.137 105.267 365.761 104.776 368.791 104.776C373.271 104.776 376.791 105.885 379.351 108.104C381.953 110.323 383.447 113.267 383.831 116.936H373.719C373.548 115.699 372.993 114.717 372.055 113.992C371.159 113.267 369.964 112.904 368.471 112.904C367.191 112.904 366.209 113.16 365.527 113.672C364.844 114.141 364.503 114.803 364.503 115.656C364.503 116.68 365.036 117.448 366.103 117.96C367.212 118.472 368.919 118.984 371.223 119.496C373.868 120.179 376.023 120.861 377.687 121.544C379.351 122.184 380.801 123.251 382.039 124.744C383.319 126.195 383.98 128.157 384.023 130.632C384.023 132.723 383.425 134.6 382.231 136.264C381.079 137.885 379.393 139.165 377.175 140.104C374.999 141.043 372.46 141.512 369.559 141.512Z" fill="white"/>
</g>
<path d="M105.685 163.152V174.624C105.685 176.4 105.181 177.768 104.173 178.728C103.181 179.688 101.837 180.168 100.141 180.168C98.3647 180.168 96.9407 179.664 95.8687 178.656C94.7967 177.648 94.2607 176.216 94.2607 174.36H98.3407C98.3407 175.064 98.4847 175.6 98.7727 175.968C99.0607 176.32 99.4767 176.496 100.021 176.496C100.517 176.496 100.901 176.336 101.173 176.016C101.445 175.696 101.581 175.232 101.581 174.624V163.152H105.685ZM122.224 166.608V180H118.12V178.176C117.704 178.768 117.136 179.248 116.416 179.616C115.712 179.968 114.928 180.144 114.064 180.144C113.04 180.144 112.136 179.92 111.352 179.472C110.568 179.008 109.96 178.344 109.528 177.48C109.096 176.616 108.88 175.6 108.88 174.432V166.608H112.96V173.88C112.96 174.776 113.192 175.472 113.656 175.968C114.12 176.464 114.744 176.712 115.528 176.712C116.328 176.712 116.96 176.464 117.424 175.968C117.888 175.472 118.12 174.776 118.12 173.88V166.608H122.224ZM133.332 166.464C134.9 166.464 136.148 166.976 137.076 168C138.02 169.008 138.492 170.4 138.492 172.176V180H134.412V172.728C134.412 171.832 134.18 171.136 133.716 170.64C133.252 170.144 132.628 169.896 131.844 169.896C131.06 169.896 130.436 170.144 129.972 170.64C129.508 171.136 129.276 171.832 129.276 172.728V180H125.172V166.608H129.276V168.384C129.692 167.792 130.252 167.328 130.956 166.992C131.66 166.64 132.452 166.464 133.332 166.464ZM153.967 173.088C153.967 173.472 153.943 173.872 153.895 174.288H144.607C144.671 175.12 144.935 175.76 145.399 176.208C145.879 176.64 146.463 176.856 147.151 176.856C148.175 176.856 148.887 176.424 149.287 175.56H153.655C153.431 176.44 153.023 177.232 152.431 177.936C151.855 178.64 151.127 179.192 150.247 179.592C149.367 179.992 148.383 180.192 147.295 180.192C145.983 180.192 144.815 179.912 143.791 179.352C142.767 178.792 141.967 177.992 141.391 176.952C140.815 175.912 140.527 174.696 140.527 173.304C140.527 171.912 140.807 170.696 141.367 169.656C141.943 168.616 142.743 167.816 143.767 167.256C144.791 166.696 145.967 166.416 147.295 166.416C148.591 166.416 149.743 166.688 150.751 167.232C151.759 167.776 152.543 168.552 153.103 169.56C153.679 170.568 153.967 171.744 153.967 173.088ZM149.767 172.008C149.767 171.304 149.527 170.744 149.047 170.328C148.567 169.912 147.967 169.704 147.247 169.704C146.559 169.704 145.975 169.904 145.495 170.304C145.031 170.704 144.743 171.272 144.631 172.008H149.767ZM160.666 176.712C161.21 176.28 161.458 176.08 161.41 176.112C162.978 174.816 164.21 173.752 165.106 172.92C166.018 172.088 166.786 171.216 167.41 170.304C168.034 169.392 168.346 168.504 168.346 167.64C168.346 166.984 168.194 166.472 167.89 166.104C167.586 165.736 167.13 165.552 166.522 165.552C165.914 165.552 165.434 165.784 165.082 166.248C164.746 166.696 164.578 167.336 164.578 168.168H160.618C160.65 166.808 160.938 165.672 161.482 164.76C162.042 163.848 162.77 163.176 163.666 162.744C164.578 162.312 165.586 162.096 166.69 162.096C168.594 162.096 170.026 162.584 170.986 163.56C171.962 164.536 172.45 165.808 172.45 167.376C172.45 169.088 171.866 170.68 170.698 172.152C169.53 173.608 168.042 175.032 166.234 176.424H172.714V179.76H160.666V176.712ZM174.617 176.88V173.568L182.201 162.72H186.785V173.328H188.753V176.88H186.785V180H182.681V176.88H174.617ZM182.969 167.232L178.937 173.328H182.969V167.232ZM201.492 169.872V173.28H190.932V169.872H201.492ZM204.541 176.712C205.085 176.28 205.333 176.08 205.285 176.112C206.853 174.816 208.085 173.752 208.981 172.92C209.893 172.088 210.661 171.216 211.285 170.304C211.909 169.392 212.221 168.504 212.221 167.64C212.221 166.984 212.069 166.472 211.765 166.104C211.461 165.736 211.005 165.552 210.397 165.552C209.789 165.552 209.309 165.784 208.957 166.248C208.621 166.696 208.453 167.336 208.453 168.168H204.493C204.525 166.808 204.813 165.672 205.357 164.76C205.917 163.848 206.645 163.176 207.541 162.744C208.453 162.312 209.461 162.096 210.565 162.096C212.469 162.096 213.901 162.584 214.861 163.56C215.837 164.536 216.325 165.808 216.325 167.376C216.325 169.088 215.741 170.68 214.573 172.152C213.405 173.608 211.917 175.032 210.109 176.424H216.589V179.76H204.541V176.712ZM227.06 167.208C226.932 166.616 226.708 166.176 226.388 165.888C226.068 165.584 225.612 165.432 225.02 165.432C224.108 165.432 223.452 165.832 223.052 166.632C222.652 167.416 222.444 168.664 222.428 170.376C222.78 169.816 223.284 169.376 223.94 169.056C224.612 168.736 225.348 168.576 226.148 168.576C227.716 168.576 228.972 169.072 229.916 170.064C230.876 171.056 231.356 172.44 231.356 174.216C231.356 175.384 231.116 176.408 230.636 177.288C230.172 178.168 229.484 178.856 228.572 179.352C227.676 179.848 226.612 180.096 225.38 180.096C222.916 180.096 221.204 179.328 220.244 177.792C219.284 176.24 218.804 174.016 218.804 171.12C218.804 168.08 219.308 165.824 220.316 164.352C221.34 162.864 222.972 162.12 225.212 162.12C226.412 162.12 227.42 162.36 228.236 162.84C229.068 163.304 229.692 163.92 230.108 164.688C230.54 165.456 230.796 166.296 230.876 167.208H227.06ZM225.164 171.816C224.476 171.816 223.9 172.024 223.436 172.44C222.988 172.84 222.764 173.416 222.764 174.168C222.764 174.936 222.972 175.536 223.388 175.968C223.82 176.4 224.428 176.616 225.212 176.616C225.916 176.616 226.468 176.408 226.868 175.992C227.284 175.56 227.492 174.976 227.492 174.24C227.492 173.488 227.292 172.896 226.892 172.464C226.492 172.032 225.916 171.816 225.164 171.816ZM238.502 176.208L235.838 183.096H233.222L234.614 176.208H238.502ZM245.51 176.712C246.054 176.28 246.302 176.08 246.254 176.112C247.822 174.816 249.054 173.752 249.95 172.92C250.862 172.088 251.63 171.216 252.254 170.304C252.878 169.392 253.19 168.504 253.19 167.64C253.19 166.984 253.038 166.472 252.734 166.104C252.43 165.736 251.974 165.552 251.366 165.552C250.758 165.552 250.278 165.784 249.926 166.248C249.59 166.696 249.422 167.336 249.422 168.168H245.462C245.494 166.808 245.782 165.672 246.326 164.76C246.886 163.848 247.614 163.176 248.51 162.744C249.422 162.312 250.43 162.096 251.534 162.096C253.438 162.096 254.87 162.584 255.83 163.56C256.806 164.536 257.294 165.808 257.294 167.376C257.294 169.088 256.71 170.68 255.542 172.152C254.374 173.608 252.886 175.032 251.078 176.424H257.558V179.76H245.51V176.712ZM259.365 171C259.365 168.248 259.893 166.08 260.949 164.496C262.021 162.912 263.741 162.12 266.109 162.12C268.477 162.12 270.189 162.912 271.245 164.496C272.317 166.08 272.853 168.248 272.853 171C272.853 173.784 272.317 175.968 271.245 177.552C270.189 179.136 268.477 179.928 266.109 179.928C263.741 179.928 262.021 179.136 260.949 177.552C259.893 175.968 259.365 173.784 259.365 171ZM268.821 171C268.821 169.384 268.645 168.144 268.293 167.28C267.941 166.4 267.213 165.96 266.109 165.96C265.005 165.96 264.277 166.4 263.925 167.28C263.573 168.144 263.397 169.384 263.397 171C263.397 172.088 263.461 172.992 263.589 173.712C263.717 174.416 263.973 174.992 264.357 175.44C264.757 175.872 265.341 176.088 266.109 176.088C266.877 176.088 267.453 175.872 267.837 175.44C268.237 174.992 268.501 174.416 268.629 173.712C268.757 172.992 268.821 172.088 268.821 171ZM274.877 176.712C275.421 176.28 275.669 176.08 275.621 176.112C277.189 174.816 278.421 173.752 279.317 172.92C280.229 172.088 280.997 171.216 281.621 170.304C282.245 169.392 282.557 168.504 282.557 167.64C282.557 166.984 282.405 166.472 282.101 166.104C281.797 165.736 281.341 165.552 280.733 165.552C280.125 165.552 279.645 165.784 279.293 166.248C278.957 166.696 278.789 167.336 278.789 168.168H274.829C274.861 166.808 275.149 165.672 275.693 164.76C276.253 163.848 276.981 163.176 277.877 162.744C278.789 162.312 279.797 162.096 280.901 162.096C282.805 162.096 284.237 162.584 285.197 163.56C286.173 164.536 286.661 165.808 286.661 167.376C286.661 169.088 286.077 170.68 284.909 172.152C283.741 173.608 282.253 175.032 280.445 176.424H286.925V179.76H274.877V176.712ZM288.588 176.712C289.132 176.28 289.38 176.08 289.332 176.112C290.9 174.816 292.132 173.752 293.028 172.92C293.94 172.088 294.708 171.216 295.332 170.304C295.956 169.392 296.268 168.504 296.268 167.64C296.268 166.984 296.116 166.472 295.812 166.104C295.508 165.736 295.052 165.552 294.444 165.552C293.836 165.552 293.356 165.784 293.004 166.248C292.668 166.696 292.5 167.336 292.5 168.168H288.54C288.572 166.808 288.86 165.672 289.404 164.76C289.964 163.848 290.692 163.176 291.588 162.744C292.5 162.312 293.508 162.096 294.612 162.096C296.516 162.096 297.948 162.584 298.908 163.56C299.884 164.536 300.372 165.808 300.372 167.376C300.372 169.088 299.788 170.68 298.62 172.152C297.452 173.608 295.964 175.032 294.156 176.424H300.636V179.76H288.588V176.712Z" fill="white"/>
<defs>
<filter id="filter0_dd_214_317" x="40.2178" y="93.6401" width="347.805" height="72.3198" filterUnits="userSpaceOnUse" color-interpolation-filters="sRGB">
<feFlood flood-opacity="0" result="BackgroundImageFix"/>
<feColorMatrix in="SourceAlpha" type="matrix" values="0 0 0 0 0 0 0 0 0 0 0 0 0 0 0 0 0 0 127 0" result="hardAlpha"/>
<feOffset dy="4"/>
<feGaussianBlur stdDeviation="2"/>
<feComposite in2="hardAlpha" operator="out"/>
<feColorMatrix type="matrix" values="0 0 0 0 0 0 0 0 0 0 0 0 0 0 0 0 0 0 0.25 0"/>
<feBlend mode="normal" in2="BackgroundImageFix" result="effect1_dropShadow_214_317"/>
<feColorMatrix in="SourceAlpha" type="matrix" values="0 0 0 0 0 0 0 0 0 0 0 0 0 0 0 0 0 0 127 0" result="hardAlpha"/>
<feOffset dy="4"/>
<feGaussianBlur stdDeviation="2"/>
<feComposite in2="hardAlpha" operator="out"/>
<feColorMatrix type="matrix" values="0 0 0 0 0 0 0 0 0 0 0 0 0 0 0 0 0 0 0.25 0"/>
<feBlend mode="normal" in2="effect1_dropShadow_214_317" result="effect2_dropShadow_214_317"/>
<feBlend mode="normal" in="SourceGraphic" in2="effect2_dropShadow_214_317" result="shape"/>
</filter>
<linearGradient id="paint0_linear_214_317" x1="96" y1="134.5" x2="297" y2="134.5" gradientUnits="userSpaceOnUse">
<stop stop-color="#E9A254"/>
<stop offset="1" stop-color="#F4BB79"/>
</linearGradient>
</defs>
</svg>
