<svg width="269" height="206" viewBox="0 0 269 206" fill="none" xmlns="http://www.w3.org/2000/svg">
<path d="M47.0973 204.031H250.036C250.036 204.031 276.196 151.036 241.316 107.049C206.436 63.062 90.697 10.592 66.1226 73.5249C41.5474 136.459 5.0819 160.46 47.0973 204.031Z" fill="#F4F6F9"/>
<path d="M113.36 204.867C115.62 198.995 102.435 196.115 110.187 194.413C118.385 192.613 110.087 190.114 103.388 185.215C96.6894 180.317 106.887 176.218 104.788 169.619C102.688 163.02 97.589 173.618 95.1673 178.317C92.7456 183.016 86.9918 176.218 84.1916 181.517C81.3923 186.816 90.3625 191.818 85.2179 194.532C78.3262 198.167 79.7561 202.823 80.8553 204.868H113.36V204.867Z" fill="#5361A0"/>
<path d="M95.4502 199.772C95.8555 200.427 96.3783 201.355 96.2868 201.913C96.2843 201.929 96.291 201.942 96.2919 201.957C95.493 203.17 94.6673 204.156 94.0111 204.866H94.5851C96.0687 203.203 98.1916 200.343 99.1247 196.774C99.1281 196.765 99.1348 196.759 99.1373 196.75C99.3169 196.142 100.987 195.172 102.293 194.546C103.89 195.003 105.066 195.195 106.938 194.788C108.928 194.356 108.475 190.235 106.209 190.531C104.363 190.773 102.727 193.226 102.183 194.128C101.442 194.478 100.117 195.155 99.3337 195.845C99.5351 194.809 99.6341 193.722 99.5812 192.593C99.5527 191.967 99.5695 191.378 99.6173 190.816C101.04 191.2 102.178 191.338 103.909 190.962C105.899 190.53 105.446 186.409 103.179 186.705C101.97 186.864 100.853 187.969 100.073 188.968C100.308 188.348 100.474 187.748 100.553 187.072C101.535 184.874 103.032 183.502 104.037 182.773C105.379 182.983 106.409 182.998 107.94 182.48C109.663 181.896 108.845 178.283 106.864 178.775C105.05 179.225 103.755 182.123 103.549 182.61C102.662 183.291 101.513 184.395 100.608 186.012C100.607 185.826 100.604 185.637 100.592 185.434C100.469 183.401 96.3279 183.218 96.2734 185.503C96.2281 187.408 98.5088 189.452 99.2674 190.078C99.1591 190.859 99.1138 191.701 99.1558 192.613C99.1667 192.851 99.1692 193.087 99.1675 193.322C99.0702 192.652 98.8738 191.964 98.5222 191.153C97.7125 189.285 93.7577 190.527 94.4878 192.693C95.0743 194.434 97.7276 195.554 98.7488 195.928C98.7488 195.928 98.9829 197.28 96.6653 201.371C96.5277 200.763 96.1383 200.077 95.8052 199.54C95.942 197.897 95.8958 196.717 95.1381 194.967C94.3283 193.098 90.3736 194.341 91.1036 196.507C91.7069 198.295 94.497 199.431 95.4502 199.772ZM202.505 204.866C198.286 190.341 213.35 188.77 212.773 181.718C212.171 174.313 210.963 170.084 223.348 157.7C231.68 149.367 230.921 139.644 229.535 134.169C222.941 131.8 227.933 153.233 219.723 150.448C210.81 147.426 205.974 139.268 204.165 146.519C202.35 153.771 213.981 164.027 207.033 167.964C200.083 171.897 197.667 156.941 193.136 161.476C188.601 166.006 199.935 176.127 199.629 184.286C199.328 192.445 182.257 178.996 179.54 190.478C177.629 198.539 188.231 202.952 194.717 204.866H202.505Z" fill="#838BC5"/>
<path d="M32.1032 120.099C36.2645 118.868 38.6403 114.497 37.4095 110.336C36.1788 106.174 31.8076 103.799 27.6462 105.029C23.4848 106.26 21.1091 110.631 22.3398 114.793C23.5706 118.954 27.9418 121.33 32.1032 120.099Z" fill="#89CCFF"/>
<path d="M27.963 111.014L25.0698 111.114L25.2601 116.604L28.1533 116.504L27.963 111.014Z" fill="white"/>
<path d="M35.0422 112.555L35.0145 112.556L34.9826 111.61C34.9659 111.108 34.5446 110.716 34.0428 110.732L31.4928 110.82C31.4928 110.82 32.4812 109.338 32.4494 108.411C32.4208 107.581 32.3461 106.483 31.1219 106.525C31.1219 106.525 30.6864 106.815 30.7292 108.061C30.7686 109.211 28.4526 110.998 28.4526 110.998L28.6473 116.673C28.6473 116.673 29.1827 117.137 29.9991 117.11L33.6896 116.983C34.2123 116.965 34.621 116.527 34.6034 116.005L34.5841 115.43C34.8912 115.419 35.132 115.161 35.1211 114.854L35.0984 114.186C35.283 114.18 35.4274 114.025 35.4207 113.841L35.3879 112.877C35.3812 112.693 35.2268 112.548 35.0422 112.555Z" fill="white"/>
<path d="M236.772 92.8395C231.786 144.943 219.441 204.627 219.441 204.627H77.0341C77.0341 204.627 39.6883 38.0234 64.7125 19.3338C105.482 -11.1077 212.519 -1.3211 231.754 19.3338C235.681 23.552 237.745 32.5255 238.489 44.3529C239.335 57.7661 238.494 74.8514 236.772 92.8395Z" fill="#CCE9FF"/>
<path d="M257.403 205.626H37.4982C37.0786 205.626 36.7388 205.286 36.7388 204.867C36.7388 204.447 37.0786 204.107 37.4982 204.107H257.403C257.823 204.107 258.162 204.447 258.162 204.867C258.162 205.286 257.823 205.626 257.403 205.626Z" fill="#C8D9FB"/>
<path d="M142.986 84.6694C142.986 84.6694 142.798 112.64 127.123 131.636C117.024 143.873 82.1698 151.2 73.7216 145.28C52.1596 130.169 11.2124 50.806 11.2124 50.806L18.6319 49.3501L82.5298 109.339L142.986 84.6694Z" fill="white"/>
<path d="M37.7871 67.5024C41.5824 70.9176 45.3501 74.3622 49.1185 77.8051L54.7599 82.9825L60.3887 88.1741L66.0074 93.3758L71.6195 98.5842L77.2197 103.806C79.0868 105.546 80.9538 107.286 82.8141 109.034L82.3753 108.951L88.7492 106.396L91.9362 105.118L95.1265 103.85L101.507 101.312L107.894 98.7881C112.15 97.104 116.415 95.4375 120.679 93.7718C124.946 92.1121 129.214 90.4548 133.493 88.8261C129.279 90.6159 125.053 92.3772 120.826 94.136C116.597 95.8889 112.367 97.641 108.13 99.3755L101.776 101.979L95.416 104.569L92.2357 105.864L89.0521 107.15L82.6857 109.723C82.5322 109.785 82.3627 109.748 82.2486 109.642L82.2469 109.64C80.3782 107.902 78.517 106.156 76.6558 104.409L71.0698 99.1724L65.4964 93.922L59.9297 88.665L54.3722 83.3978L48.8282 78.1164C45.1386 74.588 41.449 71.0603 37.7871 67.5024Z" fill="#EBE0B8"/>
<path opacity="0.35" d="M132.152 90.5385C127.811 93.9269 124.556 98.5311 121.92 103.316C119.177 108.293 117.188 113.566 115.123 118.843C113.258 123.607 110.499 128.258 105.314 129.822C102.164 130.772 98.9615 130.333 95.7317 130.384C94.0543 130.411 92.3786 130.569 90.7507 130.986C88.8803 131.465 87.2281 132.31 85.5239 133.187C79.5905 136.245 71.7305 135.182 67.0809 130.336C64.7004 127.855 63.0456 124.792 61.2742 121.875C59.1991 118.458 56.5878 115.483 53.8665 112.568C51.0857 109.588 48.1295 106.749 45.7447 103.429C43.5655 100.396 41.7807 97.1063 40.126 93.765C39.2718 92.0397 38.7096 90.1467 37.6145 88.5633C27.3085 73.6606 35.2398 66.4903 36.1368 65.8685C37.4106 64.9858 19.4678 49.186 19.4678 49.186L11.2134 50.8064C11.2134 50.8064 52.1606 130.168 73.7225 145.279C82.1708 151.2 117.025 143.873 127.124 131.635C140.903 114.938 142.715 91.3055 142.951 85.8328C139.036 86.4428 135.345 88.0464 132.152 90.5385Z" fill="#FFEA9F"/>
<path d="M225.336 204.374H112.205C112.205 204.374 105.584 78.3892 166.656 78.3892C221.158 78.3892 225.336 204.374 225.336 204.374Z" fill="white"/>
<path opacity="0.35" d="M198.533 126.987C197.362 128.604 196.108 130.192 194.655 131.566C193.191 132.953 191.561 134.153 189.871 135.249C186.539 137.411 183.003 139.243 179.637 141.352C176.578 143.27 173.427 145.314 169.892 146.223C166.327 147.141 162.737 146.518 159.413 145.039C155.848 143.453 152.575 141.152 149.763 138.457C146.937 135.749 144.664 132.591 142.589 129.286C140.385 125.775 138.489 122.074 136.857 118.266C133.849 111.247 131.686 103.829 130.531 96.2749C129.204 101.057 130.39 119.184 131.371 123.305C135.599 141.089 147.31 155.996 156.797 160.072C158.098 160.632 155.024 203.884 156.365 204.371H177.789C178.716 203.807 177.52 159.074 178.568 158.754C199.921 152.233 202.27 131.555 202.11 121.476C200.992 123.362 199.819 125.212 198.533 126.987Z" fill="#FFEA9F"/>
<path d="M174.221 12.1492C170.98 9.41787 159.888 6.85436 157.75 16.959C157.559 17.8644 156.606 19.8489 154.253 19.4847C146.092 18.2219 143.622 25.6556 143.75 32.126C143.837 36.5423 146.072 40.6456 146.615 45.0291C146.985 48.0248 146.556 51.0716 146.861 54.0748C147.241 57.8055 148.786 61.4087 151.226 64.2558C152.24 65.439 153.45 66.5206 154.927 67.019C158.847 68.3398 162.79 65.2107 165.516 62.0976C170.662 56.2204 174.847 49.5041 177.871 42.302C178.237 41.4285 178.587 40.5491 178.919 39.6613C179.221 38.8549 179.413 37.8891 179.859 37.149C180.507 36.0716 182.363 36.0581 183.445 35.6394C186.439 34.4798 189.92 32.7738 190.837 29.7077C196.127 12.004 175.965 13.6193 174.221 12.1492Z" fill="#182856"/>
<path d="M183.367 29.2287C183.427 29.2287 183.487 29.2195 183.547 29.1985C183.719 29.1389 187.775 27.6998 189.412 24.8057C189.561 24.5439 189.468 24.2108 189.206 24.0631C188.945 23.9146 188.611 24.0069 188.463 24.2695C187.03 26.8028 183.226 28.1563 183.188 28.1697C182.903 28.2696 182.753 28.5801 182.852 28.8637C182.931 29.0886 183.142 29.2287 183.367 29.2287ZM177.538 29.1842C177.733 29.1842 177.921 29.0793 178.02 28.8947C178.075 28.7907 179.386 26.2893 180.415 20.9718C180.473 20.6756 180.279 20.3903 179.984 20.3332C179.688 20.2736 179.402 20.4692 179.345 20.7645C178.351 25.8991 177.07 28.3585 177.057 28.3837C176.916 28.6497 177.017 28.9795 177.283 29.1205C177.364 29.1632 177.451 29.1842 177.538 29.1842ZM170.563 28.4357C170.842 28.4357 171.079 28.2234 171.106 27.9415C171.12 27.7946 171.427 24.2813 170.214 18.4393C170.153 18.144 169.866 17.9535 169.57 18.0164C169.274 18.0777 169.085 18.3663 169.147 18.6609C170.322 24.3257 170.024 27.8064 170.02 27.8408C169.993 28.1404 170.213 28.4055 170.514 28.4332C170.53 28.4349 170.546 28.4357 170.563 28.4357ZM161.603 30.0829C161.646 30.0829 161.69 30.0779 161.732 30.0678C162.024 29.9965 162.205 29.702 162.133 29.4091C162.076 29.1708 160.688 23.5462 158.218 21.2596C157.997 21.054 157.653 21.0674 157.448 21.289C157.243 21.5097 157.256 21.8545 157.477 22.0593C159.706 24.1235 161.061 29.6113 161.074 29.6667C161.135 29.9159 161.358 30.0829 161.603 30.0829ZM154.017 33.3613C154.137 33.3613 154.257 33.3219 154.358 33.2414C154.593 33.0526 154.631 32.7102 154.442 32.4752C154.325 32.3284 151.53 28.8771 149.062 28.1605C148.773 28.0741 148.471 28.2427 148.387 28.5322C148.303 28.8217 148.469 29.1238 148.759 29.2069C150.9 29.8287 153.567 33.1239 153.593 33.1574C153.699 33.2917 153.857 33.3613 154.017 33.3613Z" fill="#5361A0"/>
<path d="M147.944 49.2182C148.834 46.8175 151.483 45.2022 154.024 45.5085C154.044 42.575 154.251 39.6112 155.122 36.8102C157.423 29.4109 180.535 30.0578 181.504 32.0566C181.771 32.6096 185.931 46.81 186.487 51.9529C187.044 57.095 186.245 62.7297 182.714 66.5099C179.941 69.4787 175.303 70.6283 171.018 70.145C172.377 74.5235 174.108 80.4443 175.204 83.7294C172.548 85.802 157.189 83.8301 153.833 83.5423C154.604 78.3096 155.741 61.2327 156.512 56.0008C154.631 57.7369 151.576 57.1429 150.136 55.9941C148.133 54.3981 147.054 51.6181 147.944 49.2182Z" fill="#EAC8AC"/>
<path opacity="0.1" d="M165.246 84.5471C165.441 84.1938 165.63 83.8464 165.668 83.4327C165.716 82.9116 165.494 82.4568 165.441 81.9492C165.401 81.5766 165.55 81.4692 165.864 81.3249C167.356 80.6402 169.259 79.6936 169.562 77.8795C169.897 75.8715 167.712 74.5633 166.39 73.4909C165.589 72.8406 165.044 72.1466 164.564 71.2387C164.138 70.4373 163.58 69.5168 163.592 68.5762C164.408 68.8204 165.198 69.1417 166.011 69.3977C166.963 69.6981 167.961 69.9129 168.941 70.0958C169.641 70.2267 170.354 70.2888 171.07 70.3131C172.421 74.674 174.121 80.4849 175.204 83.7298C173.921 84.7317 169.672 84.7879 165.246 84.5471Z" fill="#231F20"/>
<path d="M151.155 52.2077C151.288 52.2077 151.421 52.159 151.526 52.0617C151.747 51.857 151.759 51.5121 151.554 51.2914C151.196 50.9054 151.043 50.5337 151.084 50.1544C151.171 49.379 152.034 48.7799 152.044 48.7732C152.292 48.6037 152.357 48.2655 152.188 48.0163C152.02 47.7679 151.68 47.7025 151.433 47.8703C151.381 47.9055 150.149 48.748 150.001 50.0252C149.92 50.7309 150.173 51.4063 150.755 52.0332C150.862 52.1498 151.008 52.2077 151.155 52.2077ZM178.431 54.2409C179.886 54.2409 181.447 52.9721 181.645 52.806C181.864 52.6222 181.904 52.3017 181.737 52.0701C180.267 50.0235 176.577 44.252 177.158 42.1459C177.849 39.6377 181.441 38.3371 181.477 38.3237C181.761 38.223 181.909 37.9117 181.809 37.628C181.709 37.3436 181.398 37.1959 181.113 37.2949C180.944 37.3553 176.949 38.7953 176.106 41.8555C175.369 44.5323 179.311 50.4942 180.544 52.2706C179.891 52.7229 178.789 53.3296 178.099 53.1014C177.81 53.0057 177.504 53.1601 177.409 53.4454C177.314 53.7315 177.468 54.0403 177.753 54.1352C177.973 54.209 178.201 54.2409 178.431 54.2409ZM165.279 42.8423C165.731 43.298 167.518 42.2583 168.661 41.1221C169.804 39.986 169.871 39.1854 169.418 38.729C168.965 38.2733 168.164 38.3354 167.021 39.4707C165.877 40.6078 164.826 42.3858 165.279 42.8423Z" fill="#324177"/>
<path opacity="0.05" d="M168.813 49.3331C168.907 50.0422 169.931 50.4902 171.101 50.3358C172.271 50.1814 173.143 49.4816 173.049 48.7734C172.955 48.0652 171.932 47.6163 170.762 47.7707C169.593 47.9259 168.72 48.6249 168.813 49.3331ZM179.886 47.0499C179.98 47.7589 181.004 48.207 182.174 48.0526C183.344 47.8982 184.216 47.1984 184.122 46.4902C184.028 45.782 183.005 45.333 181.835 45.4874C180.666 45.6427 179.793 46.3416 179.886 47.0499Z" fill="#231F20"/>
<path d="M168.427 44.2045C168.427 44.8959 168.987 45.4573 169.68 45.4573C170.372 45.4573 170.932 44.8967 170.932 44.2045C170.932 43.513 170.372 42.9517 169.68 42.9517C168.987 42.9517 168.427 43.513 168.427 44.2045Z" fill="#324177"/>
<path d="M180.513 44.6316C181.204 44.6316 181.765 44.0707 181.765 43.3788C181.765 42.6869 181.204 42.126 180.513 42.126C179.821 42.126 179.26 42.6869 179.26 43.3788C179.26 44.0707 179.821 44.6316 180.513 44.6316Z" fill="#324177"/>
<path d="M179.741 57.3405C178.78 57.6837 178.575 58.506 175.66 57.3405C172.746 56.1749 171.677 55.2552 171.191 56.7841C170.705 58.3121 176.437 63.2327 179.741 60.8035C183.044 58.3742 180.388 57.1089 179.741 57.3405Z" fill="white"/>
<path opacity="0.05" d="M177.546 63.4252C178.079 63.4252 178.649 63.3136 179.256 63.0267C179.528 62.8974 179.644 62.5727 179.516 62.3008C179.387 62.029 179.064 61.9115 178.791 62.0407C177.465 62.6667 176.36 62.1515 175.293 61.6522L175.166 61.5935C174.894 61.4667 174.569 61.5842 174.441 61.8578C174.314 62.1305 174.432 62.4544 174.706 62.5819L174.831 62.6407C175.605 63.0032 176.507 63.4252 177.546 63.4252Z" fill="#231F20"/>
<path d="M155.725 88.3984L150.958 89.5698L156.797 82.6445L163.683 84.1591L170.314 82.7318L176.281 89.4456L171.107 88.1282L168.895 96.2365L176.39 204.373H152.598L158.901 95.8027L155.725 88.3984Z" fill="#81C3F5"/>
<path d="M123.463 66.8767C126.339 66.8767 129.917 59.3364 129.917 59.3364L163.635 113.665C163.635 113.665 179.563 91.9277 188.522 87.2085C199.239 89.8442 221.487 128.973 172.528 154.93C137.909 173.283 128.665 94.315 123.463 66.8767Z" fill="white"/>
<path d="M130.088 57.4333C130.088 57.4333 129.615 56.9147 128.45 55.7492C127.285 54.5837 126.785 51.5041 125.953 51.7122C125.121 51.9203 124.33 56.0311 125.62 57.8461C126.911 59.6611 129.604 58.6181 130.088 57.4333Z" fill="#E5B0A3"/>
<path d="M126.716 24.9814H4.91748V66.5311H126.716V24.9814Z" fill="#83C381"/>
<path d="M33.1779 45.9257C33.1779 46.6239 33.1779 47.1039 33.1124 48.2165C32.9597 50.8564 31.2361 52.7553 27.3309 52.7553C23.2511 52.7553 21.5712 50.6172 21.4613 47.3439L21.4395 46.6893H25.3674L25.4102 47.3439C25.5411 49.3074 26.3273 49.8746 27.44 49.8746C28.5308 49.8746 29.0981 49.1765 29.2072 47.9765C29.2508 47.4748 29.2508 46.9948 29.2508 46.5366V37.3953H33.1779V45.9257ZM50.8983 44.9222C50.8983 49.7446 47.8876 52.7553 43.1961 52.7553C38.5054 52.7553 35.4938 49.7446 35.4938 44.9222C35.4938 40.0788 38.5046 37.0898 43.1961 37.0898C47.8867 37.0898 50.8983 40.0788 50.8983 44.9222ZM46.8831 44.9222C46.8831 41.7151 45.465 39.9697 43.1961 39.9697C40.9271 39.9697 39.509 41.7151 39.509 44.9222C39.509 48.1083 40.9271 49.8755 43.1961 49.8755C45.465 49.8746 46.8831 48.1083 46.8831 44.9222ZM53.2596 52.4499V37.3953H57.1867V52.4499H53.2596ZM69.3849 52.4499L63.908 42.5013C64.0389 44.0285 64.0389 45.3593 64.0389 46.232V52.4499H60.111V37.3953H64.9988L70.7149 47.7802C70.6058 46.253 70.584 44.704 70.584 43.8313V37.3953H74.5111V52.4499H69.3849ZM94.373 45.8385C94.373 46.6021 94.373 47.0602 94.3083 47.9547C94.133 50.4855 92.344 52.7553 87.6969 52.7553C83.0499 52.7553 81.2609 50.4855 81.0855 47.9547C81.0209 47.0602 81.0209 46.6021 81.0209 45.8385V37.3953H84.948V46.5584C84.948 46.9738 84.948 47.192 84.9698 47.4529C85.0789 49.0246 85.9734 49.8755 87.6969 49.8755C89.4205 49.8755 90.315 49.0246 90.4241 47.4529C90.4459 47.192 90.4459 46.9738 90.4459 46.5584V37.3953H94.373V45.8385ZM108.188 42.0423H104.261C104.087 40.7987 103.432 39.9697 102.145 39.9697C101.25 39.9697 100.639 40.406 100.639 41.3223C100.639 42.2823 101.338 42.8714 103.825 43.4604C107.141 44.245 108.494 45.9039 108.494 48.2165C108.494 51.2273 105.614 52.7553 102.58 52.7553C98.7624 52.7553 96.188 51.2273 95.948 47.8465H99.875C100.137 49.2646 101.293 49.8755 102.471 49.8755C103.562 49.8755 104.391 49.3082 104.391 48.4792C104.391 47.6938 103.824 47.0174 101.969 46.5593C98.5442 45.7084 96.5362 44.6394 96.5362 41.6286C96.5362 38.727 99.2423 37.0907 102.231 37.0907C106.204 37.0898 107.862 39.2497 108.188 42.0423Z" fill="white"/>
<path d="M11.0531 39.3213C11.2972 38.2087 9.21792 37.3209 7.86945 36.8334C9.17093 36.8568 10.7266 36.2787 10.2207 35.2936C9.15162 33.2109 2.87084 31.2549 1.44937 32.3776C0.0279082 33.5004 1.83285 35.7601 1.83285 35.7601C1.31763 36.0119 0.688294 36.3693 0.475159 36.7016C-0.93204 38.8917 1.23456 40.0841 1.23456 40.0841C-0.569543 41.9528 1.52657 43.7292 1.52657 43.7292C-0.526747 45.8622 1.93354 47.324 1.93354 47.324C1.93354 47.324 6.93048 49.0358 9.11303 47.7352C11.2956 46.4354 4.66655 44.2956 4.66655 44.2956C4.66655 44.2956 9.96053 45.1725 10.3885 43.7191C11.1328 41.1926 5.29756 40.5146 5.29756 40.5146C5.29756 40.5146 10.5513 41.6054 11.0531 39.3213Z" fill="#EAC8AC"/>
<path opacity="0.5" d="M8.19771 37.8257C8.19016 37.9239 7.92919 40.0166 7.92919 40.0166C7.92919 40.0166 9.92629 40.5352 10.2301 39.514C10.5221 38.5322 8.19771 37.8257 8.19771 37.8257ZM8.5065 34.4961C8.49224 34.5641 7.98373 36.1894 7.98373 36.1894C7.98373 36.1894 9.255 36.1978 9.50673 35.5559C9.73329 34.9777 8.5065 34.4961 8.5065 34.4961ZM8.2103 41.9961C8.19016 42.0926 7.81759 43.9202 7.81759 43.9202C7.81759 43.9202 9.46813 44.4682 9.79958 43.5535C10.1126 42.6909 8.2103 41.9961 8.2103 41.9961ZM7.60865 46.0482C7.59354 46.1204 7.22266 47.5251 7.22266 47.5251C7.22266 47.5251 8.89418 47.9001 8.99655 47.3438C9.16353 46.4317 7.60865 46.0482 7.60865 46.0482Z" fill="white"/>
<path d="M130.088 57.4333C130.088 57.4333 118.364 56.5875 117.959 58.7516C117.77 59.7636 121.7 60.3962 124.789 60.7394C120.998 60.4575 117.661 60.6387 117.976 61.79C118.219 62.6753 121.574 63.1729 124.634 63.6369C122.507 63.5102 118.129 63.3793 118.115 64.3082C118.092 65.8849 122.44 66.2113 125.381 66.3682C123.624 66.3943 119.109 66.4404 119.087 67.2904C119.068 68.0431 119.919 68.7329 123.617 68.9166C125.776 69.0232 125.687 69.4335 126.678 69.2892C127.442 69.1784 128.247 69.1482 128.819 68.7547C131.576 66.865 131.682 58.3438 130.088 57.4333Z" fill="#EAC8AC"/>
<path opacity="0.2" d="M119.38 67.4304C119.458 67.0385 120.7 66.8161 120.822 66.89C120.822 66.89 120.814 67.9162 120.734 68.0899C120.653 68.2644 119.302 67.8222 119.38 67.4304ZM118.367 64.4851C118.444 64.0932 119.688 63.8708 119.81 63.9447C119.81 63.9447 119.802 64.9709 119.721 65.1446C119.641 65.3191 118.289 64.8769 118.367 64.4851ZM118.332 61.5347C118.41 61.1429 119.653 60.9205 119.775 60.9943C119.775 60.9943 119.767 62.0206 119.686 62.1943C119.606 62.3688 118.254 61.9266 118.332 61.5347ZM118.367 58.6364C118.444 58.2446 119.688 58.0222 119.809 58.0969C119.809 58.0969 119.802 59.1231 119.721 59.2968C119.641 59.4705 118.289 59.0283 118.367 58.6364Z" fill="white"/>
<path opacity="0.1" d="M124.914 66.372L128.679 65.8409C128.679 65.8409 129.441 67.0828 128.349 68.2819C128.349 68.2819 130.307 67.452 130.389 63.1163C130.469 58.7797 129.987 58.21 129.987 58.21C129.987 58.21 129.953 59.5584 129.017 60.296C128.808 60.4613 124.846 60.729 125.092 60.7391C125.337 60.7491 128.869 61.0562 128.869 61.0562L128.821 62.8914L125.132 63.5904L128.849 63.6164L128.745 65.1788L124.914 66.372Z" fill="#231F20"/>
<path d="M79.5756 175.054V174.607C80.0186 174.607 80.4642 174.605 80.9131 174.601L80.9173 175.047C80.4667 175.051 80.0195 175.054 79.5756 175.054ZM78.233 175.048C77.7824 175.044 77.3351 175.036 76.8904 175.028L76.8996 174.581C77.3427 174.591 77.7883 174.597 78.2372 174.601L78.233 175.048ZM82.2599 175.027L82.2507 174.581C82.6937 174.571 83.1393 174.56 83.5882 174.547L83.6017 174.993C83.1511 175.007 82.7038 175.018 82.2599 175.027ZM75.5486 174.993C75.098 174.979 74.6516 174.963 74.2069 174.945L74.2254 174.498C74.6676 174.517 75.1132 174.534 75.5621 174.547L75.5486 174.993ZM84.9434 174.948L84.9258 174.502C85.3688 174.484 85.8144 174.466 86.2625 174.444L86.2835 174.89C85.8345 174.911 85.3873 174.93 84.9434 174.948ZM72.866 174.88C72.4154 174.856 71.969 174.83 71.5259 174.8L71.5553 174.355C71.9967 174.383 72.4414 174.41 72.8903 174.434L72.866 174.88ZM87.6244 174.82L87.5992 174.374C88.0414 174.349 88.487 174.322 88.9351 174.293L88.9636 174.738C88.5147 174.768 88.0683 174.795 87.6244 174.82ZM70.1859 174.706C69.7361 174.671 69.2905 174.633 68.8475 174.594L68.8877 174.149C69.3283 174.189 69.7722 174.226 70.2203 174.261L70.1859 174.706ZM90.3028 174.646L90.2701 174.2C90.7123 174.168 91.1571 174.133 91.6043 174.097L91.6404 174.543C91.1923 174.579 90.7459 174.613 90.3028 174.646ZM67.5116 174.466C67.0627 174.419 66.6179 174.371 66.1766 174.32L66.2277 173.876C66.6666 173.927 67.1097 173.975 67.5569 174.021L67.5116 174.466ZM92.978 174.428L92.9377 173.983C93.3799 173.944 93.8238 173.902 94.2702 173.858L94.313 174.303C93.8657 174.346 93.4202 174.388 92.978 174.428ZM95.6489 174.167L95.6019 173.723C96.0432 173.677 96.4871 173.628 96.9327 173.578L96.9831 174.022C96.5358 174.072 96.0911 174.121 95.6489 174.167ZM64.844 174.156C64.3968 174.098 63.9529 174.037 63.5132 173.974L63.577 173.532C64.0142 173.595 64.4564 173.655 64.9011 173.713L64.844 174.156ZM98.3156 173.866L98.2627 173.423C98.7032 173.37 99.1463 173.315 99.591 173.258L99.6481 173.701C99.2008 173.758 98.757 173.814 98.3156 173.866ZM62.1849 173.773C61.7385 173.703 61.2971 173.629 60.8599 173.553L60.9371 173.112C61.3726 173.188 61.8115 173.261 62.2554 173.332L62.1849 173.773ZM100.977 173.527L100.918 173.084C101.357 173.024 101.8 172.964 102.243 172.901L102.306 173.343C101.861 173.406 101.418 173.468 100.977 173.527ZM59.5383 173.313C59.0944 173.228 58.6547 173.141 58.2201 173.052L58.3107 172.614C58.7437 172.703 59.18 172.791 59.6214 172.875L59.5383 173.313ZM103.634 173.15L103.568 172.708C104.006 172.642 104.448 172.575 104.891 172.506L104.96 172.948C104.517 173.017 104.074 173.084 103.634 173.15ZM56.9077 172.769C56.4663 172.67 56.0308 172.568 55.5987 172.464L55.7035 172.03C56.1323 172.134 56.5662 172.235 57.005 172.333L56.9077 172.769ZM106.285 172.739L106.214 172.297C106.653 172.227 107.093 172.154 107.535 172.079L107.609 172.52C107.166 172.594 106.724 172.666 106.285 172.739ZM108.931 172.292L108.855 171.852C109.292 171.775 109.732 171.697 110.173 171.617L110.253 172.056C109.81 172.137 109.37 172.215 108.931 172.292ZM54.2955 172.137C53.8583 172.023 53.4253 171.905 52.9982 171.785L53.1191 171.355C53.5437 171.474 53.9733 171.591 54.4088 171.704L54.2955 172.137ZM111.571 171.813L111.489 171.374L111.954 171.287L112.037 171.726L111.571 171.813ZM51.7077 171.41C51.2747 171.279 50.8467 171.146 50.4247 171.01L50.5623 170.585C50.9818 170.721 51.4064 170.853 51.8369 170.983L51.7077 171.41ZM49.1492 170.584C48.7212 170.435 48.3 170.284 47.8838 170.13L48.039 169.711C48.4519 169.864 48.8706 170.014 49.2952 170.162L49.1492 170.584ZM46.6277 169.648C46.2064 169.481 45.7919 169.311 45.3832 169.138L45.5569 168.727C45.9622 168.899 46.3742 169.068 46.7921 169.233L46.6277 169.648ZM44.1514 168.598C43.7386 168.411 43.3324 168.221 42.933 168.028L43.1277 167.626C43.5238 167.818 43.9265 168.006 44.336 168.191L44.1514 168.598ZM41.7297 167.425C41.327 167.216 40.9309 167.004 40.5432 166.789L40.7597 166.398C41.144 166.611 41.5359 166.821 41.9353 167.028L41.7297 167.425ZM39.376 166.12C38.985 165.888 38.6023 165.653 38.2289 165.415L38.4689 165.038C38.839 165.273 39.2174 165.506 39.6042 165.735L39.376 166.12ZM37.1037 164.674C36.7278 164.417 36.3611 164.158 36.0044 163.895L36.2688 163.535C36.622 163.794 36.9845 164.051 37.3554 164.305L37.1037 164.674ZM34.932 163.079C34.5746 162.797 34.228 162.511 33.8907 162.223L34.181 161.884C34.5133 162.168 34.8565 162.45 35.209 162.729L34.932 163.079ZM32.8846 161.326C32.5506 161.016 32.2276 160.703 31.9154 160.388L32.2334 160.073C32.5414 160.383 32.8594 160.692 33.1892 160.998L32.8846 161.326ZM30.9874 159.408C30.6828 159.071 30.3857 158.728 30.1054 158.386L30.4503 158.103C30.7264 158.438 31.0184 158.777 31.318 159.109L30.9874 159.408ZM29.2739 157.322C29.0037 156.957 28.7436 156.584 28.4994 156.215L28.8719 155.969C29.1119 156.332 29.3679 156.698 29.633 157.056L29.2739 157.322ZM27.7878 155.065C27.5596 154.672 27.3431 154.272 27.1434 153.876L27.5428 153.676C27.7383 154.063 27.9506 154.456 28.1738 154.841L27.7878 155.065ZM26.5736 152.649C26.3957 152.23 26.2312 151.804 26.0861 151.386L26.5082 151.239C26.6508 151.648 26.8111 152.064 26.9848 152.474L26.5736 152.649ZM25.6875 150.091C25.57 149.654 25.4676 149.209 25.3846 148.769L25.8234 148.686C25.9048 149.115 26.0038 149.548 26.1188 149.974L25.6875 150.091ZM25.1849 147.428C25.1362 146.977 25.1051 146.521 25.0942 146.075L25.5406 146.063C25.5516 146.498 25.5818 146.941 25.6288 147.381L25.1849 147.428ZM25.5633 144.743L25.1177 144.716C25.1446 144.264 25.1924 143.809 25.2587 143.365L25.7009 143.431C25.6363 143.862 25.5902 144.304 25.5633 144.743ZM25.9535 142.137L25.5197 142.031C25.6262 141.591 25.7546 141.153 25.9006 140.726L26.3235 140.871C26.1817 141.284 26.0575 141.71 25.9535 142.137ZM26.806 139.643L26.3982 139.461C26.582 139.05 26.7867 138.641 27.0083 138.246L27.3985 138.464C27.1836 138.847 26.9839 139.244 26.806 139.643ZM28.0941 137.341L27.7249 137.09C27.9766 136.72 28.2502 136.354 28.538 136.001L28.8845 136.283C28.6043 136.626 28.3383 136.982 28.0941 137.341ZM29.7606 135.296L29.4392 134.985C29.7497 134.663 30.0794 134.347 30.4193 134.046L30.7155 134.381C30.384 134.674 30.0635 134.982 29.7606 135.296ZM31.7384 133.542L31.4682 133.186C31.8223 132.917 32.1948 132.654 32.5758 132.406L32.82 132.78C32.4474 133.022 32.0841 133.279 31.7384 133.542ZM33.9528 132.093L33.7346 131.703C34.0896 131.504 34.4579 131.311 34.8305 131.129L34.9337 131.079L35.1292 131.481L35.0252 131.531C34.661 131.709 34.3002 131.898 33.9528 132.093ZM36.3342 130.89L36.137 130.489C36.5356 130.294 36.9359 130.096 37.3386 129.896L37.5375 130.296C37.1339 130.496 36.7328 130.694 36.3342 130.89ZM38.7374 129.698L38.5369 129.298C38.9346 129.099 39.3341 128.898 39.7335 128.696L39.9357 129.095C39.5354 129.297 39.136 129.498 38.7374 129.698ZM41.1323 128.485L40.9284 128.088C41.3244 127.884 41.7213 127.68 42.1191 127.473L42.3247 127.87C41.9261 128.077 41.5283 128.281 41.1323 128.485ZM43.5145 127.248L43.3064 126.852C43.7008 126.645 44.0944 126.436 44.4896 126.225L44.7002 126.619C44.3041 126.831 43.9089 127.04 43.5145 127.248ZM45.8817 125.982L45.6685 125.59C46.0604 125.377 46.4514 125.162 46.8433 124.946L47.059 125.337C46.6663 125.554 46.2744 125.769 45.8817 125.982ZM48.2312 124.683L48.0122 124.294C48.4007 124.076 48.7892 123.855 49.1769 123.633L49.3993 124.02C49.0107 124.244 48.6214 124.464 48.2312 124.683ZM50.564 123.346L50.3382 122.96C50.7242 122.734 51.1085 122.507 51.4929 122.277L51.7219 122.66C51.3376 122.891 50.9508 123.119 50.564 123.346ZM52.8732 121.965L52.6399 121.584C53.0209 121.352 53.401 121.117 53.7794 120.88L54.0161 121.259C53.6368 121.496 53.2558 121.732 52.8732 121.965ZM55.1514 120.541L54.9097 120.165C55.2848 119.924 55.6591 119.681 56.0316 119.437L56.2767 119.811C55.9041 120.056 55.5282 120.3 55.1514 120.541ZM57.3944 119.066L57.1443 118.696C57.5135 118.447 57.8811 118.196 58.2461 117.943L58.5012 118.309C58.1345 118.564 57.7653 118.816 57.3944 119.066ZM59.597 117.537L59.3378 117.174C59.6994 116.916 60.0594 116.655 60.4169 116.391L60.682 116.751C60.322 117.016 59.9604 117.278 59.597 117.537ZM61.7569 115.946L61.4867 115.591C61.8425 115.32 62.1949 115.048 62.5449 114.773L62.8209 115.125C62.4693 115.401 62.1152 115.675 61.7569 115.946ZM63.8707 114.285L63.5887 113.938C63.9353 113.656 64.2785 113.372 64.6175 113.086L64.9061 113.427C64.5646 113.715 64.2189 114.001 63.8707 114.285ZM65.9257 112.55L65.6311 112.215C65.9668 111.92 66.2982 111.623 66.6263 111.324L66.9276 111.653C66.5978 111.955 66.263 112.253 65.9257 112.55ZM67.911 110.735L67.6022 110.412C67.9253 110.104 68.2441 109.794 68.5588 109.48L68.8743 109.796C68.558 110.112 68.2366 110.425 67.911 110.735ZM69.8158 108.835L69.4928 108.526C69.8015 108.204 70.1045 107.878 70.4032 107.55L70.7338 107.851C70.4326 108.181 70.1263 108.509 69.8158 108.835ZM71.6258 106.843L71.2876 106.552C71.5788 106.213 71.8641 105.873 72.1444 105.529L72.4909 105.811C72.2073 106.158 71.9195 106.501 71.6258 106.843ZM73.325 104.753L72.97 104.482C73.2411 104.128 73.5054 103.771 73.7638 103.411L74.1272 103.671C73.8662 104.036 73.5985 104.396 73.325 104.753ZM74.895 102.565L74.5241 102.317C74.7716 101.947 75.0125 101.573 75.2457 101.197L75.625 101.433C75.3884 101.813 75.145 102.191 74.895 102.565ZM76.3148 100.275L75.9271 100.054C76.1478 99.6675 76.3609 99.2782 76.5665 98.8855L76.9626 99.0927C76.7545 99.4905 76.538 99.8849 76.3148 100.275ZM77.5634 97.8861L77.1598 97.6948C77.3494 97.2953 77.5307 96.8917 77.7043 96.4848L78.1155 96.6593C77.9393 97.0721 77.7555 97.4816 77.5634 97.8861ZM78.6173 95.4098L78.1994 95.2521C78.3555 94.8376 78.5032 94.4197 78.6425 93.9984L79.0671 94.1377C78.9253 94.5657 78.7759 94.9894 78.6173 95.4098ZM79.4606 92.8455L79.0301 92.7238C79.1501 92.2984 79.2601 91.8696 79.3616 91.4375L79.7963 91.5398C79.6956 91.9753 79.5823 92.415 79.4606 92.8455ZM80.0757 90.2208L79.6368 90.1385C79.7182 89.7055 79.7904 89.2642 79.8525 88.8278L80.2947 88.8899C80.2309 89.333 80.1579 89.7811 80.0757 90.2208ZM80.4525 87.5507L80.0077 87.5087C80.0497 87.0707 80.0824 86.6285 80.1051 86.1838L80.5515 86.2072C80.5288 86.6579 80.4953 87.1059 80.4525 87.5507ZM80.5918 84.8588L80.1453 84.8554L80.1462 84.6163C80.1462 84.2555 80.1395 83.8913 80.1269 83.5254L80.5733 83.5095C80.5867 83.8804 80.5926 84.2496 80.5926 84.6154L80.5918 84.8588ZM80.0522 82.1963C80.0186 81.7574 79.975 81.316 79.923 80.8713L80.3669 80.8193C80.4197 81.2699 80.4634 81.7171 80.4978 82.1619L80.0522 82.1963ZM79.7417 79.5522C79.6738 79.1184 79.5966 78.6812 79.5101 78.2407L79.949 78.1551C80.0363 78.6007 80.1143 79.0429 80.1839 79.4826L79.7417 79.5522ZM79.2307 76.9384C79.1308 76.5104 79.0218 76.08 78.9051 75.6461L79.3364 75.5295C79.4547 75.9683 79.5647 76.4039 79.6654 76.836L79.2307 76.9384ZM78.5367 74.3665C78.4084 73.9461 78.2716 73.524 78.1273 73.0977L78.5502 72.9534C78.6962 73.383 78.8346 73.811 78.9639 74.2356L78.5367 74.3665ZM77.6783 71.8416C77.5239 71.4296 77.3628 71.0159 77.1933 70.5988L77.607 70.4302C77.7782 70.8506 77.941 71.2685 78.0962 71.6847L77.6783 71.8416ZM262.486 171.053H262.429L262.434 170.606H262.485C262.907 170.606 263.322 170.567 263.721 170.49L263.806 170.928C263.38 171.011 262.935 171.053 262.486 171.053ZM261.059 170.917C260.615 170.833 260.169 170.71 259.734 170.55L259.888 170.131C260.3 170.282 260.722 170.398 261.142 170.478L261.059 170.917ZM265.131 170.52L264.953 170.111C265.349 169.939 265.723 169.721 266.063 169.465L266.332 169.823C265.964 170.1 265.56 170.335 265.131 170.52ZM258.485 169.982C258.088 169.766 257.701 169.516 257.332 169.24L257.6 168.883C257.953 169.146 258.322 169.384 258.699 169.591L258.485 169.982ZM267.337 168.863L266.993 168.578C267.262 168.253 267.499 167.89 267.698 167.5L268.096 167.703C267.883 168.123 267.628 168.513 267.337 168.863ZM256.293 168.352C255.971 168.039 255.663 167.698 255.375 167.34L255.723 167.06C256 167.404 256.296 167.732 256.604 168.031L256.293 168.352ZM268.599 166.418L268.17 166.294C268.247 166.027 268.311 165.746 268.361 165.461C268.387 165.311 268.411 165.161 268.431 165.014L268.874 165.076C268.852 165.229 268.828 165.383 268.801 165.538C268.749 165.839 268.681 166.136 268.599 166.418ZM254.583 166.23C254.345 165.853 254.121 165.453 253.918 165.041L254.318 164.843C254.515 165.241 254.731 165.628 254.96 165.992L254.583 166.23ZM268.994 163.718L268.547 163.703C268.551 163.575 268.554 163.449 268.554 163.324C268.554 163.01 268.54 162.696 268.514 162.392L268.958 162.354C268.986 162.671 269 162.998 269 163.325C269 163.455 268.998 163.586 268.994 163.718ZM268.316 161.103C268.222 160.679 268.099 160.259 267.95 159.854L268.369 159.699C268.525 160.123 268.655 160.562 268.754 161.006L268.316 161.103ZM267.417 158.666C267.216 158.287 266.984 157.913 266.73 157.553L267.095 157.296C267.36 157.671 267.602 158.061 267.811 158.456L267.417 158.666ZM265.912 156.53C265.628 156.213 265.317 155.898 264.987 155.596L265.288 155.267C265.629 155.578 265.951 155.903 266.245 156.232L265.912 156.53ZM263.977 154.75C263.638 154.49 263.274 154.233 262.898 153.985L263.143 153.612C263.528 153.865 263.901 154.129 264.248 154.396L263.977 154.75ZM261.767 153.295C261.394 153.082 260.999 152.872 260.596 152.669L260.795 152.27C261.207 152.476 261.608 152.69 261.989 152.906L261.767 153.295ZM259.392 152.104C258.991 151.927 258.581 151.756 258.162 151.591L258.326 151.176C258.75 151.343 259.166 151.516 259.572 151.695L259.392 152.104ZM256.914 151.126C256.498 150.98 256.076 150.839 255.648 150.703L255.783 150.278C256.216 150.415 256.643 150.557 257.062 150.705L256.914 151.126ZM251.783 149.651C251.352 149.55 250.917 149.454 250.478 149.362L250.571 148.925C251.012 149.018 251.45 149.115 251.885 149.217L251.783 149.651ZM254.226 150.278C253.795 150.177 253.359 150.081 252.921 149.989L253.013 149.551C253.455 149.644 253.893 149.742 254.328 149.843L254.226 150.278ZM249.168 149.098C248.731 149.015 248.293 148.935 247.852 148.859L247.928 148.419C248.371 148.495 248.812 148.575 249.251 148.659L249.168 149.098ZM246.532 148.643C246.091 148.574 245.648 148.508 245.205 148.446L245.267 148.004C245.712 148.067 246.157 148.132 246.601 148.201L246.532 148.643ZM243.875 148.269C243.433 148.214 242.989 148.161 242.547 148.111L242.597 147.668C243.041 147.718 243.486 147.77 243.931 147.826L243.875 148.269ZM241.219 147.971C240.773 147.927 240.329 147.885 239.885 147.846L239.925 147.402C240.37 147.441 240.816 147.482 241.263 147.527L241.219 147.971ZM238.55 147.736C238.102 147.702 237.657 147.67 237.215 147.641L237.244 147.195C237.689 147.224 238.135 147.256 238.585 147.291L238.55 147.736ZM218.478 147.59L218.446 147.145C218.446 147.145 218.925 147.11 219.79 147.067L219.813 147.513C218.955 147.556 218.479 147.59 218.478 147.59ZM235.878 147.559C235.428 147.534 234.982 147.511 234.54 147.491L234.56 147.045C235.004 147.065 235.452 147.088 235.902 147.114L235.878 147.559ZM221.15 147.453L221.132 147.006C221.54 146.99 221.988 146.974 222.474 146.959L222.487 147.406C222.003 147.42 221.556 147.436 221.15 147.453ZM233.201 147.435C232.749 147.418 232.302 147.404 231.862 147.391L231.874 146.945C232.316 146.958 232.764 146.972 233.218 146.989L233.201 147.435ZM223.826 147.37L223.816 146.923C224.243 146.914 224.691 146.906 225.157 146.899L225.163 147.345C224.698 147.352 224.252 147.36 223.826 147.37ZM230.522 147.36C230.067 147.352 229.62 147.345 229.182 147.34L229.187 146.894C229.626 146.899 230.075 146.906 230.531 146.914L230.522 147.36ZM226.502 147.333L226.5 146.886C226.803 146.885 227.112 146.884 227.426 146.884L227.839 146.885L227.841 147.331L227.426 147.33C227.112 147.33 226.804 147.331 226.502 147.333Z" fill="#838BC5"/>
<path d="M253.059 153.94L254.644 162.891C254.675 163.06 254.56 163.223 254.392 163.252L240.507 165.712C240.338 165.742 240.175 165.628 240.146 165.459L238.561 156.507C238.531 156.339 238.645 156.176 238.814 156.146L252.698 153.687C252.867 153.657 253.03 153.771 253.059 153.94Z" fill="#89CCFF"/>
<path opacity="0.3" d="M238.551 156.451L245.86 159.399C246.083 159.489 246.326 159.514 246.563 159.472C246.799 159.43 247.018 159.323 247.197 159.163L253.05 153.884L246.779 158.98C246.615 159.114 246.392 159.153 246.192 159.084L238.551 156.451Z" fill="url(#paint0_radial_281_69)"/>
<path opacity="0.3" d="M254.585 162.55L247.275 159.602C247.053 159.512 246.809 159.487 246.573 159.529C246.336 159.571 246.117 159.678 245.938 159.839L240.085 165.118L246.356 160.022C246.521 159.887 246.743 159.848 246.944 159.918L254.585 162.55Z" fill="url(#paint1_radial_281_69)"/>
<path d="M246.749 160.503C246.671 160.775 246.492 160.938 246.222 160.974C245.792 161.037 245.55 160.734 245.506 160.131L245.464 159.503C245.42 158.893 245.619 158.525 246.049 158.467C246.307 158.428 246.496 158.533 246.616 158.757L246.59 158.396L247.176 158.292L247.305 160.088C247.311 160.194 247.357 160.237 247.455 160.219C247.796 160.159 247.809 159.376 247.699 158.753C247.564 157.991 247.105 157.53 246.256 157.681C245.17 157.873 244.756 158.841 245.002 160.233C245.176 161.215 245.736 161.746 246.706 161.574C247.158 161.494 247.528 161.34 247.896 160.935L247.951 161.53C247.596 161.87 247.212 162.013 246.761 162.093C245.387 162.336 244.647 161.567 244.423 160.304C244.156 158.796 244.681 157.425 246.188 157.158C247.477 156.93 248.028 157.663 248.203 158.652C248.469 160.154 247.828 160.727 247.358 160.81C247.046 160.865 246.824 160.785 246.749 160.503ZM246.092 159.996C246.111 160.282 246.235 160.379 246.426 160.353C246.611 160.327 246.719 160.194 246.7 159.908L246.658 159.317C246.64 159.075 246.499 158.992 246.334 159.022C246.144 159.049 246.034 159.175 246.055 159.468L246.092 159.996Z" fill="white"/>
<path d="M238.084 76.6207L200.206 77.7267C198.81 77.7267 197.681 76.5938 197.681 75.2018V40.8047C197.681 39.4092 198.809 38.2798 200.206 38.2798H260.957C261.231 38.2798 261.49 38.3217 261.739 38.4057C262.424 49.2831 235.948 51.1728 238.084 76.6207Z" fill="#83C381"/>
<path d="M264.543 32.7852H203.791C202.396 32.7852 201.266 33.9154 201.266 35.3101V69.7063C201.266 71.1009 202.396 72.2312 203.791 72.2312H264.543C265.937 72.2312 267.068 71.1009 267.068 69.7063V35.3101C267.068 33.9154 265.937 32.7852 264.543 32.7852Z" fill="white"/>
<path d="M260.473 56.285H207.859C207.091 56.285 206.466 56.9084 206.466 57.6779C206.466 58.4474 207.09 59.0708 207.859 59.0708H260.473C261.241 59.0708 261.866 58.4474 261.866 57.6779C261.866 56.9084 261.242 56.285 260.473 56.285ZM260.276 50.3734H247.943C247.174 50.3734 246.55 50.9969 246.55 51.7663V51.7949C246.55 52.5643 247.174 53.1878 247.943 53.1878H260.276C261.045 53.1878 261.669 52.5643 261.669 51.7949V51.7663C261.669 50.9969 261.045 50.3734 260.276 50.3734ZM236.326 62.1563H207.86C207.091 62.1563 206.467 62.7797 206.467 63.5492V63.5777C206.467 64.3472 207.091 64.9707 207.86 64.9707H236.326C237.095 64.9707 237.719 64.3472 237.719 63.5777V63.5492C237.718 62.7797 237.095 62.1563 236.326 62.1563ZM248.261 62.1563H240.686C239.917 62.1563 239.293 62.7797 239.293 63.5492V63.5777C239.293 64.3472 239.917 64.9707 240.686 64.9707H248.261C249.03 64.9707 249.654 64.3472 249.654 63.5777V63.5492C249.653 62.7797 249.03 62.1563 248.261 62.1563ZM207.859 53.187H242.685C243.455 53.187 244.078 52.5635 244.078 51.794V51.7655C244.078 50.996 243.455 50.3726 242.685 50.3726H207.859C207.091 50.3726 206.466 50.996 206.466 51.7655V51.7949C206.467 52.5643 207.091 53.187 207.859 53.187Z" fill="#83C381"/>
<path d="M235.4 17.133C236.558 10.7311 232.306 4.6032 225.904 3.4459C219.502 2.28859 213.374 6.54018 212.217 12.9421C211.06 19.3439 215.311 25.4719 221.713 26.6292C228.115 27.7865 234.243 23.5349 235.4 17.133Z" fill="#89CCFF"/>
<path d="M226.579 20.8801L230.918 20.8926L230.942 12.6575L226.602 12.645L226.579 20.8801Z" fill="white"/>
<path d="M216.08 15.285H216.122L216.126 13.8661C216.128 13.1134 216.74 12.505 217.493 12.5067L221.319 12.5176C221.319 12.5176 219.767 10.3435 219.771 8.95221C219.775 7.7078 219.835 6.05894 221.671 6.06398C221.671 6.06398 222.337 6.47682 222.331 8.34721C222.326 10.0724 225.88 12.6418 225.88 12.6418L225.855 21.1546C225.855 21.1546 225.074 21.8755 223.849 21.8721L218.314 21.8562C217.53 21.8536 216.896 21.2167 216.899 20.433L216.901 19.5712C216.44 19.5696 216.068 19.1953 216.069 18.7338L216.072 17.7319C215.795 17.7311 215.571 17.5062 215.572 17.2301L215.576 15.7835C215.578 15.5074 215.803 15.2842 216.08 15.285Z" fill="white"/>
<defs>
<radialGradient id="paint0_radial_281_69" cx="0" cy="0" r="1" gradientUnits="userSpaceOnUse" gradientTransform="translate(245.79 155.191) rotate(21.685) scale(5.21293)">
<stop stop-color="#BFB0F9"/>
<stop offset="1" stop-color="#EFDBFF"/>
</radialGradient>
<radialGradient id="paint1_radial_281_69" cx="0" cy="0" r="1" gradientUnits="userSpaceOnUse" gradientTransform="translate(247.338 163.822) rotate(21.685) scale(5.21293)">
<stop stop-color="#BFB0F9"/>
<stop offset="1" stop-color="#EFDBFF"/>
</radialGradient>
</defs>
</svg>
