<svg version="1.2" xmlns="http://www.w3.org/2000/svg" viewBox="0 0 278 73" width="139" height="36.5">
	<title>logo</title>
	<style>
		.s0 { fill: #000000 } 
		.s1 { fill: #38aaff } 
		.s2 { fill: #61aa5e } 
		.s3 { fill: #f29c40 } 
		.s4 { fill: #ffc94e } 
		.s5 { fill: #ffd978 } 
		.s6 { fill: #ffe5a2 } 
	</style>
	<path id="Layer" fill-rule="evenodd" class="s0" d="m98.9 20.7v5h-10.3v5.3h7.7v4.8h-7.7v10.2h-6.2v-25.3zm9.4 8.6q1.1-1.7 2.7-2.6 1.6-1 3.6-1v6.5h-1.7q-2.3 0-3.4 1-1.2 1-1.2 3.5v9.3h-6.1v-20.1h6.1zm28.2 6.4q0 0.8-0.1 1.8h-14q0.2 1.9 1.2 2.9 1.1 0.9 2.7 0.9 2.3 0 3.2-1.9h6.5q-0.5 2-1.8 3.6-1.3 1.5-3.3 2.4-2 0.9-4.4 0.9-3 0-5.3-1.2-2.3-1.3-3.6-3.6-1.3-2.4-1.3-5.5 0-3.1 1.3-5.5 1.3-2.3 3.6-3.6 2.3-1.2 5.3-1.2 2.9 0 5.2 1.2 2.2 1.2 3.5 3.5 1.3 2.3 1.3 5.3zm-6.3-1.6q0-1.6-1.1-2.6-1.1-0.9-2.7-0.9-1.5 0-2.6 0.9-1.1 0.9-1.3 2.6zm30-8.1l-12.6 29.6h-6.6l4.6-10.2-8.1-19.4h6.8l4.7 12.5 4.6-12.5zm24.1-5.2v25.3h-6.2v-10.5h-9.5v10.5h-6.2v-25.3h6.2v9.9h9.5v-9.9zm3.3 15.2q0-3.1 1.1-5.5 1.2-2.3 3.2-3.6 2-1.2 4.5-1.2 2.1 0 3.7 0.8 1.7 0.9 2.5 2.3v-2.8h6.2v20.1h-6.2v-2.9q-0.9 1.4-2.5 2.3-1.6 0.8-3.7 0.8-2.5 0-4.5-1.2-2-1.3-3.2-3.7-1.1-2.3-1.1-5.4zm15 0q0-2.3-1.3-3.6-1.2-1.4-3.1-1.4-1.8 0-3.1 1.4-1.3 1.3-1.3 3.6 0 2.3 1.3 3.6 1.3 1.4 3.1 1.4 1.9 0 3.1-1.4 1.3-1.3 1.3-3.6zm9.4 0q0-3.1 1.3-5.5 1.3-2.3 3.5-3.6 2.3-1.2 5.3-1.2 3.8 0 6.3 2 2.5 1.9 3.3 5.5h-6.5q-0.8-2.3-3.2-2.3-1.7 0-2.7 1.4-1 1.3-1 3.7 0 2.5 1 3.8 1 1.3 2.7 1.3 2.4 0 3.2-2.3h6.5q-0.8 3.5-3.3 5.5-2.6 2-6.3 2-3 0-5.3-1.2-2.2-1.3-3.5-3.6-1.3-2.4-1.3-5.5zm35.3 10.1l-6.1-8.5v8.5h-6.2v-26.7h6.2v14.7l6.1-8.1h7.6l-8.4 10 8.4 10.1zm18.2 0.2q-2.6 0-4.7-0.9-2.1-0.9-3.2-2.4-1.2-1.6-1.4-3.5h6.1q0.1 1 1 1.7 0.8 0.6 2.1 0.6 1.2 0 1.8-0.4 0.6-0.5 0.6-1.2 0-0.9-0.9-1.3-0.9-0.4-2.9-0.9-2.2-0.5-3.6-1.1-1.4-0.5-2.5-1.7-1-1.2-1-3.3 0-1.7 0.9-3.1 1-1.5 2.8-2.3 1.9-0.8 4.4-0.8 3.8 0 6 1.8 2.2 1.9 2.5 5h-5.7q-0.1-1-0.9-1.6-0.8-0.7-2-0.7-1.1 0-1.7 0.5-0.6 0.4-0.6 1.1 0 0.9 0.9 1.3 1 0.4 2.9 0.9 2.2 0.5 3.7 1.1 1.4 0.5 2.4 1.8 1.1 1.2 1.1 3.3 0 1.8-1 3.2-1 1.4-2.8 2.1-1.9 0.8-4.3 0.8z"/>
	<path id="Layer" class="s1" d="m108.1 63.6c0.3 0.4 0.5 0.9 0.5 1.4 0 0.5-0.2 1-0.5 1.4-0.3 0.3-0.8 0.6-1.3 0.6h-8.3c-0.5 0-1-0.3-1.3-0.6-0.4-0.4-0.6-0.9-0.6-1.4 0-0.5 0.2-1 0.6-1.4 0.3-0.3 0.8-0.6 1.3-0.6h8.3c0.5 0 1 0.3 1.3 0.6zm-60 0c0.3 0.4 0.5 0.9 0.5 1.4 0 0.5-0.2 1-0.5 1.4-0.3 0.3-0.8 0.6-1.3 0.6h-8.3c-0.5 0-1-0.3-1.3-0.6-0.4-0.4-0.6-0.9-0.6-1.4 0-0.5 0.2-1 0.6-1.4 0.3-0.3 0.8-0.6 1.3-0.6h8.3c0.5 0 1 0.3 1.3 0.6zm46 0c0.3 0.4 0.5 0.9 0.5 1.4 0 0.5-0.2 1-0.5 1.4-0.4 0.4-0.9 0.6-1.5 0.6h-15.9v2h8.9c0.6 0 1.1 0.2 1.5 0.6 0.3 0.4 0.5 0.9 0.5 1.4 0 0.5-0.2 1-0.5 1.4-0.4 0.4-0.9 0.6-1.5 0.6h-25c-0.5 0-1-0.2-1.4-0.6-0.4-0.4-0.6-0.9-0.6-1.4 0-0.5 0.2-1 0.6-1.4 0.4-0.4 0.9-0.6 1.4-0.6h8v-2h-16c-0.5 0-1-0.2-1.4-0.6-0.4-0.4-0.6-0.9-0.6-1.4 0-0.5 0.2-1 0.6-1.4 0.4-0.4 0.9-0.6 1.4-0.6h40c0.6 0 1.1 0.2 1.5 0.6z"/>
	<path id="Layer" class="s2" d="m136.6 53.4q0.4 0.1 0.7 0.4 0.3 0.3 0.5 0.7 0.2 0.4 0.2 0.8 0 0.5-0.2 0.9-0.2 0.4-0.5 0.6-0.3 0.3-0.7 0.5-0.4 0.1-0.9 0h-133.4q-0.5 0.1-0.9 0-0.4-0.2-0.7-0.5-0.3-0.2-0.5-0.6-0.2-0.4-0.2-0.9 0-0.4 0.2-0.8 0.2-0.4 0.5-0.7 0.3-0.3 0.7-0.4 0.4-0.1 0.9-0.1h4.7c-0.5 0-1-0.2-1.4-0.6-0.4-0.3-0.6-0.8-0.6-1.4 0-0.5 0.2-1 0.6-1.4 0.4-0.4 0.9-0.6 1.4-0.6 4.4-0.1 8.8 0.6 13 2.1 3.8 1.4 7.8 2 11.8 1.9 4 0.1 8-0.5 11.8-1.9 4.2-1.5 8.6-2.2 13-2.1 4.4-0.1 8.8 0.6 13 2.1 3.8 1.4 7.8 2 11.8 1.9 4 0.1 8-0.5 11.8-1.9 4.2-1.5 8.6-2.2 13-2.1 4.4-0.1 8.8 0.6 13 2.1 3.8 1.4 7.8 2 11.8 1.9h4.7q0.5 0 0.9 0.1z"/>
	<path id="Layer" class="s3" d="m26.3 36.9l-15.5-3.9q-0.5-0.1-0.8-0.5-0.4-0.5-0.4-1 0-0.5 0.4-1 0.3-0.4 0.8-0.5l15.5-3.9 0.6-1.3-8.3-13.7q-0.2-0.4-0.2-1 0.1-0.5 0.5-0.9 0.3-0.3 0.9-0.4 0.5-0.1 1 0.2l13.7 8.2 1.3-0.5 3.8-15.5q0.2-0.5 0.6-0.9 0.4-0.3 0.9-0.3 0.6 0 1 0.3 0.4 0.4 0.5 0.9l3.9 15.5 1.3 0.5 13.7-8.2q0.5-0.3 1-0.2 0.5 0.1 0.9 0.4 0.4 0.4 0.5 0.9 0 0.6-0.3 1l-8.2 13.7 0.5 1.3 15.6 3.9q0.5 0.1 0.8 0.5 0.3 0.5 0.3 1 0 0.5-0.3 1-0.3 0.4-0.8 0.5l-15.6 3.9-0.5 1.3 8.2 13.7q0.3 0.4 0.3 1-0.1 0.5-0.5 0.9-0.4 0.3-0.9 0.4-0.5 0.1-1-0.2l-13.7-8.2-1.3 0.5-3.9 15.5q-0.1 0.5-0.5 0.9-0.4 0.3-1 0.3-0.5 0-0.9-0.3-0.4-0.4-0.6-0.9l-3.9-15.5-1.2-0.5-13.7 8.2q-0.5 0.3-1 0.2-0.6-0.1-0.9-0.4-0.4-0.4-0.5-0.9 0-0.6 0.2-1l8.3-13.7z"/>
	<path id="Layer" class="s4" d="m71.5 30q0.5 0.1 0.8 0.6 0.3 0.4 0.3 0.9 0 0.5-0.3 1-0.3 0.4-0.8 0.5l-15.6 3.9-0.5 1.3 8.2 13.7q0.3 0.4 0.3 1-0.1 0.5-0.5 0.9-0.4 0.3-0.9 0.4-0.5 0.1-1-0.2l-13.7-8.2-1.3 0.5-3.9 15.5q-0.1 0.5-0.5 0.9-0.4 0.3-1 0.3v-63q0.6 0 1 0.3 0.4 0.4 0.5 0.9l3.9 15.5 1.3 0.5 13.7-8.2q0.5-0.3 1-0.2 0.5 0.1 0.9 0.4 0.4 0.4 0.5 0.9 0 0.6-0.3 1l-8.2 13.7 0.5 1.3 15.6 3.9z"/>
	<circle id="Layer" class="s5" cx="41.3" cy="31.3" r="15.8"/>
	<path id="Layer" class="s6" d="m52.4 20.2c3 2.9 4.7 6.9 4.7 11.1 0 4.2-1.7 8.2-4.7 11.1-3 3-7 4.6-11.3 4.6v-31.5c4.3 0 8.3 1.7 11.3 4.7z"/>
</svg>