<?xml version="1.0" encoding="UTF-8" standalone="no"?>
<!DOCTYPE svg PUBLIC "-//W3C//DTD SVG 1.1//EN" "http://www.w3.org/Graphics/SVG/1.1/DTD/svg11.dtd">
<svg xmlns="http://www.w3.org/2000/svg" xmlns:xlink="http://www.w3.org/1999/xlink" version="1.1" width="283.465pt" height="283.465pt" viewBox="0 0 283.465 283.465">
<g enable-background="new">
<g id="Layer-1" data-name="Layer">
<clipPath id="cp0">
<path transform="matrix(1,0,0,-1,0,283.465)" d="M 0 283.465 L 283.465 283.465 L 283.465 0 L 0 0 Z "/>
</clipPath>
<g clip-path="url(#cp0)">
<path transform="matrix(1,0,0,-1,100.9067,85.6357)" d="M 0 0 C .105 .107 .201 .22 .307 .326 C 2.755 2.776 5.401 4.907 8.193 6.719 C 26.725 18.744 51.706 16.712 68.066 .636 C 86.548 -18.206 86.414 -48.431 67.719 -67.141 C 67.613 -67.248 67.59 -67.262 67.483 -67.367 C 67.483 -67.367 90.607 -90.355 90.732 -90.414 C 86.161 -81.059 79.218 -68.579 74.779 -59.343 C 85.139 -59.685 99.695 -59.853 110.106 -60.055 C 101.48 -53.653 90.139 -45.447 81.875 -39.027 C 91.307 -34.72 105.055 -28.543 114.553 -24.272 C 104.311 -22.116 89.834 -19.621 79.493 -17.625 C 86.126 -10.012 96.023 1.912 102.626 9.894 C 92.551 7.299 78.203 3.409 68.081 .65 C 70.939 10.781 74.614 25.553 77.153 35.568 C 69.229 28.807 57.681 18.661 49.822 12.073 C 48.031 22.067 45.177 37.32 43.088 47.429 C 38.72 37.922 32.64 23.948 28.438 14.458 C 22.278 22.728 13.505 34.793 7.171 43.318 C 7.474 32.906 7.802 17.796 8.14 7.354 C -1.087 12.103 -14.293 19.169 -23.558 23.775 C -23.499 23.65 0 0 0 0 " fill="#000000"/>
<path transform="matrix(1,0,0,-1,107.9644,195.3227)" d="M 0 0 L -15.751 15.751 L -15.754 77.163 C -15.453 100.597 3.853 119.653 27.281 119.653 C 51.014 119.653 70.323 100.344 70.323 76.61 C 70.323 53.03 51.14 33.722 27.562 33.569 L 27.213 33.567 L 27.213 33.58 L 19.371 33.563 L 19.423 83.439 L 35.126 67.735 L 35.129 50.479 C 46.578 53.915 54.565 64.646 54.565 76.61 C 54.565 91.655 42.326 103.895 27.281 103.895 C 12.59 103.895 .357 91.946 .011 77.258 L 0 76.919 Z " fill="#000000"/>
<path transform="matrix(1,0,0,-1,40.6211,221.2289)" d="M 0 0 L 0 -7.242 C .211 -7.254 .393 -7.26 .545 -7.26 C 1.225 -7.26 1.696 -7.093 1.96 -6.759 C 2.224 -6.425 2.355 -5.73 2.355 -4.676 L 2.355 -2.338 C 2.355 -1.365 2.203 -.732 1.898 -.439 C 1.594 -.146 .961 0 0 0 M -7.4 4.869 L .053 4.869 C 2.068 4.869 3.618 4.711 4.702 4.395 C 5.786 4.078 6.601 3.621 7.146 3.023 C 7.69 2.426 8.06 1.702 8.253 .853 C 8.446 .003 8.543 -1.312 8.543 -3.094 L 8.543 -5.572 C 8.543 -7.389 8.355 -8.713 7.98 -9.545 C 7.605 -10.377 6.917 -11.016 5.915 -11.461 C 4.913 -11.906 3.604 -12.129 1.986 -12.129 L 0 -12.129 L 0 -23.59 L -7.4 -23.59 Z " fill="#000000"/>
<path transform="matrix(1,0,0,-1,68.4736,216.3598)" d="M 0 0 L 0 -19.02 C 0 -21.176 -.07 -22.69 -.211 -23.563 C -.352 -24.437 -.768 -25.333 -1.459 -26.253 C -2.15 -27.173 -3.062 -27.87 -4.192 -28.345 C -5.323 -28.819 -6.656 -29.057 -8.191 -29.057 C -9.891 -29.057 -11.391 -28.775 -12.691 -28.213 C -13.992 -27.65 -14.965 -26.918 -15.609 -26.016 C -16.254 -25.113 -16.635 -24.161 -16.752 -23.159 C -16.869 -22.157 -16.928 -20.051 -16.928 -16.84 L -16.928 0 L -9.527 0 L -9.527 -21.34 C -9.527 -22.582 -9.46 -23.376 -9.325 -23.722 C -9.19 -24.067 -8.918 -24.24 -8.508 -24.24 C -8.039 -24.24 -7.737 -24.05 -7.603 -23.669 C -7.468 -23.288 -7.4 -22.389 -7.4 -20.971 L -7.4 0 Z " fill="#000000"/>
<path transform="matrix(1,0,0,-1,88.2217,216.3598)" d="M 0 0 L 0 -28.459 L -6.486 -28.459 L -10.336 -15.521 L -10.336 -28.459 L -16.523 -28.459 L -16.523 0 L -10.336 0 L -6.187 -12.814 L -6.187 0 Z " fill="#000000"/>
<path transform="matrix(1,0,0,-1,109.1924,216.3598)" d="M 0 0 L -4.245 -12.85 L .404 -28.459 L -7.242 -28.459 L -10.239 -16.26 L -10.239 -28.459 L -17.64 -28.459 L -17.64 0 L -10.239 0 L -10.239 -11.057 L -6.943 0 Z " fill="#000000"/>
<path transform="matrix(1,0,0,-1,125.3369,221.2289)" d="M 0 0 L 0 -18.721 C 1.066 -18.721 1.723 -18.507 1.969 -18.079 C 2.215 -17.651 2.338 -16.488 2.338 -14.59 L 2.338 -3.533 C 2.338 -2.244 2.297 -1.418 2.215 -1.055 C 2.133 -.691 1.945 -.425 1.652 -.255 C 1.359 -.085 .809 0 0 0 M -7.4 4.869 L -1.863 4.869 C 1.711 4.869 4.128 4.705 5.388 4.377 C 6.647 4.049 7.605 3.51 8.262 2.76 C 8.918 2.01 9.328 1.175 9.492 .255 C 9.656 -.665 9.738 -2.473 9.738 -5.168 L 9.738 -15.135 C 9.738 -17.689 9.618 -19.397 9.378 -20.259 C 9.138 -21.12 8.719 -21.794 8.121 -22.28 C 7.523 -22.767 6.785 -23.106 5.906 -23.3 C 5.027 -23.493 3.703 -23.59 1.934 -23.59 L -7.4 -23.59 Z " fill="#000000"/>
<path transform="matrix(1,0,0,-1,147.7051,223.6723)" d="M 0 0 C 0 1.324 -.073 2.171 -.22 2.54 C -.366 2.909 -.668 3.094 -1.125 3.094 C -1.512 3.094 -1.808 2.944 -2.013 2.646 C -2.218 2.347 -2.32 1.465 -2.32 0 L -2.32 -13.289 C -2.32 -14.941 -2.253 -15.961 -2.118 -16.348 C -1.983 -16.734 -1.67 -16.928 -1.178 -16.928 C -.674 -16.928 -.352 -16.705 -.211 -16.26 C -.07 -15.814 0 -14.754 0 -13.078 Z M 7.4 -9.352 C 7.4 -12.211 7.333 -14.235 7.198 -15.425 C 7.063 -16.614 6.642 -17.701 5.933 -18.686 C 5.224 -19.67 4.266 -20.426 3.059 -20.953 C 1.852 -21.48 .445 -21.744 -1.16 -21.744 C -2.684 -21.744 -4.052 -21.495 -5.265 -20.997 C -6.478 -20.499 -7.453 -19.752 -8.191 -18.756 C -8.93 -17.76 -9.369 -16.676 -9.51 -15.504 C -9.65 -14.332 -9.721 -12.281 -9.721 -9.352 L -9.721 -4.482 C -9.721 -1.623 -9.653 .401 -9.519 1.591 C -9.384 2.78 -8.962 3.867 -8.253 4.852 C -7.544 5.836 -6.586 6.592 -5.379 7.119 C -4.172 7.646 -2.766 7.91 -1.16 7.91 C .363 7.91 1.731 7.661 2.944 7.163 C 4.157 6.665 5.133 5.918 5.871 4.922 C 6.609 3.926 7.049 2.842 7.189 1.67 C 7.33 .498 7.4 -1.553 7.4 -4.482 Z " fill="#000000"/>
<path transform="matrix(1,0,0,-1,181.0586,216.3598)" d="M 0 0 L 0 -28.459 L -6.469 -28.459 L -6.478 -9.246 L -9.053 -28.459 L -13.641 -28.459 L -16.356 -9.686 L -16.365 -28.459 L -22.834 -28.459 L -22.834 0 L -13.258 0 C -12.975 -1.711 -12.682 -3.728 -12.38 -6.05 L -11.329 -13.289 L -9.629 0 Z " fill="#000000"/>
<path transform="matrix(1,0,0,-1,193.2598,234.6586)" d="M 0 0 C -.374 3.224 -.75 7.208 -1.127 11.953 C -1.881 6.504 -2.354 2.52 -2.547 0 Z M 3.923 18.299 L 8.154 -10.16 L .591 -10.16 L .194 -5.045 L -2.453 -5.045 L -2.897 -10.16 L -10.549 -10.16 L -6.774 18.299 Z " fill="#000000"/>
<path transform="matrix(1,0,0,-1,0,283.465)" d="M 210.432 38.646 L 203.03202 38.646 L 203.03202 67.104999 L 210.432 67.104999 Z " fill="#000000"/>
<path transform="matrix(1,0,0,-1,230.2852,216.3598)" d="M 0 0 L 0 -28.459 L -6.486 -28.459 L -10.336 -15.521 L -10.336 -28.459 L -16.523 -28.459 L -16.523 0 L -10.336 0 L -6.187 -12.814 L -6.187 0 Z " fill="#000000"/>
<path transform="matrix(1,0,0,-1,249.2959,224.9731)" d="M 0 0 L -6.873 0 L -6.873 2.109 C -6.873 3.094 -6.961 3.721 -7.137 3.99 C -7.312 4.26 -7.605 4.395 -8.016 4.395 C -8.461 4.395 -8.798 4.213 -9.026 3.85 C -9.255 3.485 -9.369 2.935 -9.369 2.196 C -9.369 1.246 -9.241 .53 -8.983 .05 C -8.738 -.431 -8.041 -1.011 -6.893 -1.69 C -3.599 -3.646 -1.523 -5.25 -.668 -6.504 C .187 -7.758 .615 -9.779 .615 -12.568 C .615 -14.596 .378 -16.09 -.097 -17.051 C -.571 -18.012 -1.488 -18.817 -2.848 -19.468 C -4.207 -20.118 -5.789 -20.443 -7.594 -20.443 C -9.574 -20.443 -11.265 -20.068 -12.665 -19.318 C -14.065 -18.568 -14.982 -17.613 -15.416 -16.453 C -15.85 -15.293 -16.066 -13.646 -16.066 -11.514 L -16.066 -9.65 L -9.193 -9.65 L -9.193 -13.113 C -9.193 -14.18 -9.097 -14.865 -8.903 -15.17 C -8.71 -15.475 -8.367 -15.627 -7.875 -15.627 C -7.383 -15.627 -7.017 -15.434 -6.776 -15.047 C -6.536 -14.66 -6.416 -14.086 -6.416 -13.324 C -6.416 -11.648 -6.645 -10.553 -7.102 -10.037 C -7.57 -9.521 -8.725 -8.66 -10.564 -7.453 C -12.404 -6.234 -13.623 -5.35 -14.221 -4.799 C -14.818 -4.248 -15.313 -3.486 -15.706 -2.514 C -16.099 -1.541 -16.295 -.299 -16.295 1.213 C -16.295 3.393 -16.017 4.986 -15.46 5.994 C -14.903 7.002 -14.004 7.79 -12.762 8.358 C -11.52 8.927 -10.02 9.211 -8.262 9.211 C -6.34 9.211 -4.702 8.9 -3.349 8.279 C -1.995 7.658 -1.099 6.876 -.659 5.933 C -.22 4.989 0 3.387 0 1.125 Z " fill="#000000"/>
</g>
</g>
</g>
</svg>
