<svg className='absolute bottom-20 right-[15%] w-[18px] sm:w-[33px] '  viewBox="0 0 33 43" fill="none" xmlns="http://www.w3.org/2000/svg">
				<path d="M31.6684 7.59249C29.5462 7.59352 27.4972 8.36534 25.9059 9.76318C24.3146 11.161 23.2902 13.0888 23.0249 15.185C22.7562 13.0888 21.7297 11.1619 20.1374 9.76452C18.5451 8.36715 16.4961 7.59501 14.3734 7.59249C16.4966 7.59168 18.5465 6.82014 20.1392 5.42245C21.7318 4.02475 22.7578 2.09684 23.0249 0C23.2886 2.09686 24.3124 4.02565 25.9041 5.42381C27.4958 6.82196 29.5457 7.59318 31.6684 7.59249V7.59249ZM8.1108 4.43498C7.10999 4.43687 6.14414 4.80172 5.394 5.46126C4.64386 6.1208 4.16081 7.02984 4.03522 8.01831C3.91056 7.03666 3.43331 6.13307 2.6916 5.47443C1.9499 4.81578 0.993836 4.44657 0 4.43498C0.993103 4.42534 1.94908 4.05784 2.69096 3.40051C3.43285 2.74319 3.91039 1.84055 4.03522 0.859672C4.16096 1.84737 4.64431 2.75548 5.39464 3.4137C6.14496 4.07193 7.11073 4.43506 8.1108 4.43498ZM33 29.4219C29.2046 29.4251 25.5405 30.8058 22.6941 33.3052C19.8477 35.8047 18.0142 39.2515 17.5371 43C17.0605 39.2556 15.2305 35.8121 12.3891 33.3132C9.54779 30.8143 5.88959 29.431 2.09832 29.4219C5.89564 29.4223 9.56261 28.0431 12.4111 25.5432C15.2595 23.0433 17.0937 19.5944 17.5693 15.8438C18.0441 19.5875 19.8724 23.0309 22.7124 25.5299C25.5524 28.029 29.2096 29.4125 33 29.4219V29.4219Z" fill="white"/>
			</svg>