<svg width="1440" height="396" viewBox="0 0 1440 396" fill="none" xmlns="http://www.w3.org/2000/svg">
<path fill-rule="evenodd" clip-rule="evenodd" d="M0 262H560.242C582.268 262 600 241.401 600 215.814V166.075C600 140.487 581.65 119.888 560.242 119.888C551.207 119.888 539.887 125.513 527.161 131.838C509.733 140.499 489.666 150.471 469.217 149.1C454.653 148.123 444.506 142.849 433.218 136.982C417.084 128.597 398.618 119 361.588 119C327.381 119 304.562 128.268 284.233 136.524C267.157 143.46 251.837 149.682 233 149.1C215.177 148.549 205.363 142.859 194.519 136.571C180.257 128.302 164.215 119 125.828 119C88.4234 119 65.3034 128.902 45.5371 137.368C30.0517 144 16.6247 149.751 0 149.168V262Z" fill="#55ACEE"/>
<path d="M138.758 117C166.114 117 192.738 144.883 231.519 147.1C270.301 149.317 291.255 117 358.828 117C426.402 117 424.735 145.825 466 147.1C507.265 148.375 531.649 117 594.588 117C657.528 117 666.838 144.727 702.217 147.1C737.597 149.472 771.833 117.888 793.242 117.888C814.65 117.888 833 138.487 833 164.075V213.814C833 239.401 815.268 260 793.242 260H138.758C116.732 260 99 239.401 99 213.814V164.075C99 138.487 111.403 117 138.758 117V117Z" fill="#55ACEE"/>
<path d="M777.853 148.183C737.655 174.097 671.207 145.86 680.175 105.327C688.037 69.7964 730.244 80.008 739.845 84.8028C749.44 89.5977 743.635 64.1297 721.372 56.4856C691.216 46.1358 654.298 48.3259 642.635 100.341C634.661 135.888 650.274 185.723 710.241 186.388C770.214 187.052 777.853 148.183 777.853 148.183Z" fill="#226699"/>
<path d="M791.621 156.236C791.621 144.829 776.981 143.829 770.357 150.288C754.442 165.805 731.01 171.615 699.668 165.496C645.181 154.865 644.692 91.0063 681.951 72.7838C702.103 62.923 726.008 74.5964 735.103 81.5814C743.013 87.6573 758.142 95.7214 757.35 85.5735C755.654 63.9861 713.335 17.7388 656.637 46.9756C599.933 76.2124 600.316 142.197 600.316 154.158V192.697C600.316 204.44 609.959 213.684 621.701 213.684H770.544C782.286 213.684 791.684 204.44 791.684 192.697C791.684 192.697 791.663 156.268 791.621 156.236" fill="#55ACEE"/>
<path d="M541.852 131.183C501.654 157.097 435.207 128.86 444.174 88.3271C452.036 52.7964 494.244 63.008 503.844 67.8028C513.439 72.5977 507.634 47.1297 485.372 39.4856C455.215 29.1358 418.297 31.3259 406.634 83.3409C398.661 118.888 414.273 168.723 474.241 169.388C534.213 170.052 541.852 131.183 541.852 131.183Z" fill="#226699"/>
<path d="M555.62 139.236C555.62 127.829 540.98 126.829 534.357 133.288C518.442 148.805 495.009 154.615 463.668 148.496C409.181 137.865 408.692 74.0063 445.95 55.7838C466.102 45.923 490.007 57.5964 499.103 64.5814C507.013 70.6573 522.141 78.7214 521.349 68.5735C519.653 46.9861 477.334 0.738758 420.636 29.9756C363.933 59.2124 364.315 125.197 364.315 137.158V175.697C364.315 187.44 373.958 196.684 385.701 196.684H534.543C546.286 196.684 555.684 187.44 555.684 175.697C555.684 175.697 555.663 139.268 555.62 139.236" fill="#55ACEE"/>
<path d="M680.758 396C708.114 396 734.738 364.218 773.519 361.691C812.301 359.164 833.255 396 900.828 396C968.402 396 966.735 363.144 1008 361.691C1049.26 360.237 1073.65 396 1136.59 396C1199.53 396 1208.84 364.395 1244.22 361.691C1279.6 358.986 1313.83 394.988 1335.24 394.988C1356.65 394.988 1375 371.507 1375 342.342V285.646C1375 256.48 1357.27 233 1335.24 233H680.758C658.732 233 641 256.48 641 285.646V342.342C641 371.507 653.403 396 680.758 396V396Z" fill="url(#paint0_linear_243_171)"/>
<path d="M271.853 156.183C231.655 182.097 165.207 153.86 174.175 113.327C182.037 77.7964 224.244 88.008 233.845 92.8028C243.44 97.5977 237.635 72.1297 215.372 64.4856C185.216 54.1358 148.298 56.3259 136.635 108.341C128.661 143.888 144.274 193.723 204.241 194.388C264.214 195.052 271.853 156.183 271.853 156.183Z" fill="#226699"/>
<path d="M285.621 164.236C285.621 152.829 270.981 151.829 264.357 158.288C248.442 173.805 225.01 179.615 193.668 173.496C139.181 162.865 138.692 99.0063 175.951 80.7838C196.103 70.923 220.008 82.5964 229.103 89.5814C237.013 95.6573 252.142 103.721 251.35 93.5735C249.654 71.9861 207.335 25.7388 150.637 54.9756C93.9332 84.2124 94.316 150.197 94.316 162.158V200.697C94.316 212.44 103.959 221.684 115.701 221.684H264.544C276.286 221.684 285.684 212.44 285.684 200.697C285.684 200.697 285.663 164.268 285.621 164.236" fill="#55ACEE"/>
<path fill-rule="evenodd" clip-rule="evenodd" d="M1440 128.924C1439.39 129.227 1438.78 129.531 1438.16 129.838C1420.73 138.499 1400.67 148.471 1380.22 147.1C1365.65 146.123 1355.51 140.849 1344.22 134.982C1328.08 126.597 1309.62 117 1272.59 117C1238.38 117 1215.56 126.268 1195.23 134.524C1178.16 141.46 1162.84 147.682 1144 147.1C1126.18 146.549 1116.36 140.859 1105.52 134.571C1091.26 126.302 1075.21 117 1036.83 117C999.423 117 976.303 126.902 956.537 135.368C940.595 142.196 926.834 148.089 909.519 147.1C889.043 145.929 871.955 137.603 856.36 130.005C842.419 123.212 829.67 117 816.758 117C789.403 117 777 138.487 777 164.075V213.814C777 239.401 794.732 260 816.758 260H1440V128.924Z" fill="#55ACEE"/>
<path fill-rule="evenodd" clip-rule="evenodd" d="M1440 155.37C1400.43 166.957 1350.31 140.869 1358.17 105.327C1366.04 69.7962 1408.24 80.0079 1417.84 84.8027C1427.44 89.5976 1421.63 64.1296 1399.37 56.4855C1369.22 46.1357 1332.3 48.3258 1320.63 100.341C1312.66 135.887 1328.27 185.723 1388.24 186.387C1413.92 186.672 1430 179.71 1440 171.654V155.37Z" fill="#226699"/>
<path d="M1291.85 189.183C1251.65 215.097 1185.21 186.86 1194.17 146.327C1202.04 110.796 1244.24 121.008 1253.84 125.803C1263.44 130.598 1257.63 105.13 1235.37 97.4856C1205.22 87.1358 1168.3 89.3259 1156.63 141.341C1148.66 176.888 1164.27 226.723 1224.24 227.388C1284.21 228.052 1291.85 189.183 1291.85 189.183Z" fill="#226699"/>
<path d="M1305.62 197.236C1305.62 185.829 1290.98 184.829 1284.36 191.288C1268.44 206.805 1245.01 212.615 1213.67 206.496C1159.18 195.865 1158.69 132.006 1195.95 113.784C1216.1 103.923 1240.01 115.596 1249.1 122.581C1257.01 128.657 1272.14 136.721 1271.35 126.574C1269.65 104.986 1227.33 58.7388 1170.64 87.9756C1113.93 117.212 1114.32 183.197 1114.32 195.158V233.697C1114.32 245.44 1123.96 254.684 1135.7 254.684H1284.54C1296.29 254.684 1305.68 245.44 1305.68 233.697C1305.68 233.697 1305.66 197.268 1305.62 197.236" fill="#55ACEE"/>
<path fill-rule="evenodd" clip-rule="evenodd" d="M0 385.568C6.31519 392.104 14.8474 396 25.7583 396C38.6701 396 51.4188 388.919 65.36 381.177C80.9552 372.515 98.0426 363.025 118.519 361.691C135.834 360.562 149.595 367.28 165.537 375.063C185.303 384.713 208.423 396 245.828 396C284.215 396 300.257 385.397 314.519 375.971C325.363 368.805 335.177 362.318 353 361.691C371.837 361.027 387.157 368.119 404.233 376.025C424.562 385.436 447.381 396 481.588 396C518.618 396 537.084 385.06 553.218 375.503C564.506 368.815 574.653 362.804 589.217 361.691C609.666 360.127 629.733 371.494 647.161 381.367C659.887 388.576 671.207 394.988 680.242 394.988C701.65 394.988 720 371.507 720 342.342V285.646C720 256.48 702.268 233 680.242 233H25.7583C15.9148 233 6.9289 237.689 0 245.48V385.568Z" fill="#55ACEE"/>
<path fill-rule="evenodd" clip-rule="evenodd" d="M1440 233H1136.76C1114.73 233 1097 256.48 1097 285.646V342.342C1097 371.507 1109.4 396 1136.76 396C1149.67 396 1162.42 388.919 1176.36 381.177C1191.96 372.515 1209.04 363.025 1229.52 361.691C1246.83 360.562 1260.59 367.28 1276.54 375.063C1296.3 384.713 1319.42 396 1356.83 396C1395.21 396 1411.26 385.397 1425.52 375.971C1430.29 372.819 1434.86 369.798 1440 367.35V233Z" fill="#55ACEE"/>
<path fill-rule="evenodd" clip-rule="evenodd" d="M0 134.93C10.8143 143.266 25.556 148.61 44.9251 148.825C104.898 149.489 112.537 110.62 112.537 110.62C72.3386 136.535 5.89126 108.297 14.859 67.7645C22.721 32.2337 64.9284 42.4454 74.5287 47.2402C84.1237 52.0351 78.3189 26.5671 56.0564 18.923C37.4365 12.5326 16.2389 10.9228 0 22.8701V134.93Z" fill="#226699"/>
<path fill-rule="evenodd" clip-rule="evenodd" d="M0 176.122H105.228C116.97 176.122 126.368 166.877 126.368 155.135C126.368 155.135 126.347 118.706 126.305 118.674C126.305 107.266 111.665 106.267 105.042 112.725C89.1261 128.242 65.6941 134.052 34.3522 127.934C18.4201 124.825 7.10482 117.166 0 107.427V176.122ZM0 49.3037C4.19872 43.4746 9.77737 38.575 16.6346 35.2212C36.7868 25.3604 60.6919 37.0339 69.7872 44.0188C77.6971 50.0948 92.8259 58.1588 92.0338 48.011C90.4258 27.5402 52.2883 -15.1055 0 5.46819V49.3037Z" fill="#55ACEE"/>
<path fill-rule="evenodd" clip-rule="evenodd" d="M1440 157.075C1424.62 167.378 1403.92 170.62 1377.67 165.496C1323.18 154.865 1322.69 91.0062 1359.95 72.7837C1380.1 62.9229 1404.01 74.5964 1413.1 81.5813C1421.01 87.6573 1436.14 95.7213 1435.35 85.5735C1433.65 63.9861 1391.33 17.7387 1334.64 46.9755C1278.3 76.0231 1278.31 141.345 1278.32 153.919L1278.32 154.158V192.697C1278.32 204.44 1287.96 213.684 1299.7 213.684H1440V157.075Z" fill="#55ACEE"/>
<defs>
<linearGradient id="paint0_linear_243_171" x1="1008" y1="396" x2="1008" y2="233" gradientUnits="userSpaceOnUse">
<stop stop-color="#55ACEE"/>
<stop offset="1" stop-color="#55ACEE"/>
</linearGradient>
</defs>
</svg>
