<svg xmlns="http://www.w3.org/2000/svg" width="298.21" height="173.7">
  <path fill="#491d55" d="M297.25 42.53c0-22.74-18.5-42.53-41.24-42.53h-182a42.31 42.31 0 0 0-40.06 55.46 42.7 42.7 0 0 0-21.22 11.28C4.52 74.85 0 86.19 0 98.67s4.67 24 13.14 32.12c5.66 5.41 15.63 11.86 31 11.86h29.28a42.45 42.45 0 0 0 21.91-6.08 41.54 41.54 0 0 0 41.64 37.13 62.93 62.93 0 0 0 42.19-16 80.25 80.25 0 0 0 16.29-20.28 40.64 40.64 0 0 0 17.45 3.92h44.4a41 41 0 0 0 40.92-40.92zM44.14 109.65c-6.76 0-10.62-3.38-10.62-10.46 0-7.24 3.86-10.78 10.62-10.78s10.47 3.55 10.47 10.79c0 7.08-3.71 10.45-10.47 10.45zm74.65 0a8.75 8.75 0 0 1-6.92-3.38c-5-6.92-15.77-22.2-15.77-22.2s-10.78 15.29-15.77 22.2a8.76 8.76 0 0 1-6.92 3.38 8.73 8.73 0 0 1-6.92-14L85.96 71.2 67.14 48.04a8.44 8.44 0 0 1-1.77-5.31 8.65 8.65 0 0 1 8.69-8.69 8.77 8.77 0 0 1 6.92 3.38L96.1 58.17l15.12-20.75a8.77 8.77 0 0 1 6.92-3.38 8.65 8.65 0 0 1 8.69 8.69 8.44 8.44 0 0 1-1.77 5.31L106.24 71.2l19.46 24.46a8.73 8.73 0 0 1-6.91 13.99zm81.4-63.55l-29.93 67.57c-7.08 15.77-17.21 27-33.3 27a8.05 8.05 0 1 1 0-16.09c10.29 0 15.12-8.21 20.43-21.4L132.61 46.1a9 9 0 0 1-.64-3.38 8.65 8.65 0 0 1 8.69-8.69 8.47 8.47 0 0 1 8 5.47l17.7 44.73 17.7-44.73a8.48 8.48 0 0 1 8-5.47 8.65 8.65 0 0 1 8.69 8.69 9 9 0 0 1-.56 3.38zm57.11 62.26h-44.4a7.48 7.48 0 0 1-7.4-7.4 7.3 7.3 0 0 1 1.77-4.83l19.17-25.68 12.17-16.26 3.24-4.34h-27.18a7.24 7.24 0 1 1 0-14.48h41.34a7.77 7.77 0 0 1 6 12.71l-33.99 45.48h29.28a7.405 7.405 0 0 1 0 14.81z"/>
</svg>
